<svg xmlns="http://www.w3.org/2000/svg" xmlns:xlink="http://www.w3.org/1999/xlink" version="1.1" x="0px" y="0px" viewBox="0 0 21 29" style="enable-background:new 0 0 21 29;" xml:space="preserve"><g><path d="M20,19v-9h-2v1h-2v-1H5v1H3v-1H1v9H0v3h1v-2h2v2h1v-3H3v-6h2v7h1v7H4v2h6v-2H9v-7h3v7h-1v2h6v-2h-2v-7h1v-7h2v6h-1v3h1v-2   h2v2h1v-3H20z M11,18H7v-6h4V18z M12,12h2v1h-2V12z M12,14h2v1h-2V14z M12,16h2v1h-2V16z"></path><path d="M5,6c0-1,0-3,0-4C3.896,2,3,2.896,3,4C3,5.105,3.896,6,5,6z"></path><path d="M18,4c0-1.104-0.896-2-2-2c0,1,0,3,0,4C17.104,6,18,5.105,18,4z"></path><path d="M15,0H6v9h9V0z M8,2h2v2H8V2z M13,7H8V6h5V7z M13,4h-2V2h2V4z"></path></g></svg>