<?xml version="1.0" encoding="utf-8"?>
<!-- Generator: Adobe Illustrator 16.0.0, SVG Export Plug-In . SVG Version: 6.00 Build 0)  -->
<!DOCTYPE svg PUBLIC "-//W3C//DTD SVG 1.1//EN" "http://www.w3.org/Graphics/SVG/1.1/DTD/svg11.dtd">
<svg version="1.1" id="Layer_1" xmlns:sketch="http://www.bohemiancoding.com/sketch/ns"
	 xmlns="http://www.w3.org/2000/svg" xmlns:xlink="http://www.w3.org/1999/xlink" x="0px" y="0px" width="200px" height="200px"
	 viewBox="0 0 200 200" enable-background="new 0 0 200 200" xml:space="preserve">
<title>science-fox</title>
<desc>Created with Sketch.</desc>
<g id="Page-1_1_" sketch:type="MSPage">
	<g id="science-fox" sketch:type="MSArtboardGroup">
		<g id="Page-1" sketch:type="MSLayerGroup">
			<path id="Fill-1" sketch:type="MSShapeGroup" fill="#006837" d="M0,0.689V127.6l52.439,45.711L173.576,56.372L126.141,0.689H0z"
				/>
			<g id="Group-6" transform="translate(25.908046, 28.142857)" sketch:type="MSShapeGroup">
				<path id="Fill-2" fill="#006837" d="M0.85,84.645c0,46.509,37.729,84.212,84.268,84.212c46.529,0,84.258-37.704,84.258-84.212
					c0-46.508-37.729-84.21-84.258-84.21H0.85V84.645z"/>
				<path id="Fill-4" fill="#FFFFFF" d="M8.099,84.645c0,42.508,34.484,76.968,77.019,76.968c42.525,0,77.01-34.46,77.01-76.968
					c0-42.507-34.484-76.966-77.01-76.966H8.099V84.645z"/>
			</g>
		</g>
	</g>
</g>
</svg>
