<?xml version="1.0" encoding="UTF-8" standalone="no"?>
<svg width="200px" height="200px" viewBox="0 0 200 200" version="1.1" xmlns="http://www.w3.org/2000/svg" xmlns:xlink="http://www.w3.org/1999/xlink" xmlns:sketch="http://www.bohemiancoding.com/sketch/ns">
    <!-- Generator: Sketch 3.4.2 (15857) - http://www.bohemiancoding.com/sketch -->
    <title>science-fox</title>
    <desc>Created with Sketch.</desc>
    <defs></defs>
    <g id="Page-1" stroke="none" stroke-width="1" fill="none" fill-rule="evenodd" sketch:type="MSPage">
        <g id="science-fox" sketch:type="MSArtboardGroup">
            <g id="Page-1" sketch:type="MSLayerGroup">
                <path d="M0,0.689387429 L0,127.599039 L52.4390115,173.310919 L173.576023,56.3717189 L126.140644,0.689387429 L0,0.689387429 Z" id="Fill-1" fill="#006837" sketch:type="MSShapeGroup"></path>
                <g id="Group-6" transform="translate(25.908046, 28.142857)" sketch:type="MSShapeGroup">
                    <path d="M0.849896552,84.644596 C0.849896552,131.153482 38.5787701,168.85703 85.1175057,168.85703 C131.646103,168.85703 169.374977,131.153482 169.374977,84.644596 C169.374977,38.136836 131.646103,0.434413143 85.1175057,0.434413143 L0.849896552,0.434413143 L0.849896552,84.644596 Z" id="Fill-2" fill="#006837"></path>
                    <path d="M8.09862989,84.6447086 C8.09862989,127.152806 42.5822391,161.613171 85.1176184,161.613171 C127.64286,161.613171 162.126469,127.152806 162.126469,84.6447086 C162.126469,42.1377371 127.64286,7.67849714 85.1176184,7.67849714 L8.09862989,7.67849714 L8.09862989,84.6447086 Z" id="Fill-4" fill="#FFFFFF"></path>
                </g>
                <g id="Group-296" transform="translate(65.333333, 54.034286)" sketch:type="MSShapeGroup">
                    <path d="M59.2985609,1.71086057 C61.5277793,2.70936914 63.1791356,3.93752343 62.9932736,7.17620343 C62.8085379,10.4160091 62.9132966,15.4569577 58.7150667,16.3789177 C57.444446,16.6580949 52.4836184,17.0025634 50.7196184,15.6427006 C48.8395954,14.1927806 46.0809517,11.3458491 44.7168368,11.2681749 C43.3515954,11.1905006 42.1215264,14.2197977 41.4681931,15.7969234 C40.4645379,18.2194606 36.1311356,19.0952663 34.4381011,19.3282891 C32.0725839,19.6524949 29.6462391,19.198832 27.4496874,15.6573349 C25.6665379,12.784512 25.9346299,8.72743771 27.4508138,6.48163771 C29.1990437,3.89362057 35.0959402,1.74913486 44.6199632,0.735992 C52.8373195,-0.137562286 56.9015034,0.636929143 59.2985609,1.71086057" id="Fill-7" fill="#FFFFFF"></path>
                    <path d="M24.6054345,93.1008491 C24.6054345,93.1008491 38.4132966,94.5192491 46.3805839,93.2640777 C54.9460092,91.9143463 64.9780552,88.8355177 64.9780552,88.8355177 L64.9780552,78.0005177 L24.6054345,78.0005177 L24.6054345,93.1008491 Z" id="Fill-9" fill="#9EBEBC"></path>
                    <path d="M44.933,103.391679 C30.8176207,103.391679 19.3752759,106.337673 19.3752759,109.971479 C19.3752759,113.605285 30.8176207,116.551279 44.933,116.551279 C59.0483793,116.551279 70.4907241,113.605285 70.4907241,109.971479 C70.4907241,106.337673 59.0483793,103.391679 44.933,103.391679" id="Fill-11" fill="#D9D9D8"></path>
                    <path d="M48.712646,81.7992406 L48.712646,107.930446 C48.712646,107.930446 55.8914276,111.038543 58.0350368,111.542863 C62.3042322,112.547001 63.9555885,108.802875 61.772554,108.366098 C59.5895195,107.930446 53.0787149,105.588961 53.0787149,105.588961 L53.0787149,82.912572 L48.712646,81.7992406 Z" id="Fill-13" fill="#F26E26"></path>
                    <path d="M40.8030322,83.7854509 L40.8030322,107.929771 C40.8030322,107.929771 33.0249862,111.267514 30.8644805,111.693034 C27.0469862,112.446137 25.5600897,108.803325 27.7431241,108.366548 C29.9261586,107.929771 36.4369632,105.588285 36.4369632,105.588285 L36.4369632,82.9130223 L40.8030322,83.7854509 Z" id="Fill-15" fill="#F26E26"></path>
                    <path d="M81.4625563,63.1354606 C79.2862805,72.4226034 73.7678667,81.8403291 60.167269,80.2429406 C60.167269,80.2429406 60.2494989,62.4825463 60.2494989,62.460032 C60.2528782,61.5785977 62.6510621,60.040872 63.2368092,59.6479977 C64.4522345,58.8307291 65.7972,58.2138377 67.2007402,57.7961977 C68.9850161,57.2648606 70.8740506,57.3470377 72.701131,57.0138263" id="Fill-17" fill="#F26E26"></path>
                    <path d="M78.8996874,62.245696 C75.7501701,68.5001646 70.1360092,73.2270389 60.2053425,72.0743074 C60.1850667,76.2664674 60.1670437,80.243616 60.1670437,80.243616 C73.7687678,81.8410046 79.2871816,72.4221531 81.4634575,63.1350103" id="Fill-19" fill="#D75C27"></path>
                    <path d="M82.6707724,46.5034823 C82.6426115,50.3410423 80.5023816,53.4694023 77.2199448,55.3268309 C76.1092782,55.9549794 74.9163816,56.433408 73.6908184,56.7857566 C73.3089563,56.8960766 72.9214621,56.9726251 72.5328414,57.0379166 C73.1737839,58.4777051 75.2509333,61.6375851 81.4497149,63.186568 C83.4254851,54.7999966 82.6707724,46.5034823 82.6707724,46.5034823" id="Fill-21" fill="#ECDDC9"></path>
                    <path d="M82.811577,50.2037051 C82.811577,50.3005166 82.8127034,50.3984537 82.8127034,50.4986423 C82.8127034,50.3984537 82.811577,50.3005166 82.811577,50.2037051" id="Fill-23" fill="#E0D3C1"></path>
                    <path d="M82.8074092,49.7270777 C82.8085356,49.8013749 82.8096621,49.8767977 82.8096621,49.9522206 C82.8096621,49.8767977 82.8085356,49.8013749 82.8074092,49.7270777" id="Fill-25" fill="#E0D3C1"></path>
                    <path d="M82.8119149,50.7035223 C82.8119149,50.8239737 82.8107885,50.9444251 82.8096621,51.0682537 C82.8107885,50.9444251 82.8119149,50.8239737 82.8119149,50.7035223" id="Fill-27" fill="#E0D3C1"></path>
                    <path d="M82.7906253,48.8625291 C82.7917517,48.8884206 82.7917517,48.914312 82.7928782,48.9402034 C82.7917517,48.914312 82.7917517,48.8884206 82.7906253,48.8625291" id="Fill-29" fill="#E0D3C1"></path>
                    <path id="Fill-31" fill="#E0D3C1"></path>
                    <path d="M82.8003126,49.2800566 C82.8014391,49.3307137 82.8025655,49.3813709 82.803692,49.4331537 C82.8025655,49.3813709 82.8014391,49.3307137 82.8003126,49.2800566" id="Fill-33" fill="#E0D3C1"></path>
                    <path d="M82.8081977,51.2320451 C82.8070713,51.3727594 82.8048184,51.5157251 82.8025655,51.6609423 C82.8048184,51.5157251 82.8070713,51.3727594 82.8081977,51.2320451" id="Fill-35" fill="#E0D3C1"></path>
                    <path d="M82.7996368,51.7800429 C82.7962575,51.9443971 82.7928782,52.1110029 82.7883724,52.2809857 C82.7928782,52.1110029 82.7962575,51.9443971 82.7996368,51.7800429" id="Fill-37" fill="#E0D3C1"></path>
                    <path d="M82.7861195,52.3387349 C82.7804874,52.5289806 82.7748552,52.7214777 82.7669701,52.917352 C82.7748552,52.7214777 82.7804874,52.5289806 82.7861195,52.3387349" id="Fill-39" fill="#E0D3C1"></path>
                    <path d="M82.659508,46.7609331 C82.6381057,47.072756 82.6121977,47.3902074 82.5851632,47.7121617 C82.5829103,47.7256703 82.5817839,47.7403046 82.5806575,47.7549389 C82.6257149,47.4160989 82.6527494,47.0705046 82.6617609,46.718156 C82.6617609,46.7327903 82.6606345,46.7462989 82.659508,46.7609331" id="Fill-41" fill="#E0D3C1"></path>
                    <path d="M82.6709977,46.5107994 C82.6709977,46.5096737 82.6698713,46.5029194 82.6698713,46.5029194 C82.6698713,46.5907251 82.6619862,46.6751537 82.6597333,46.760708 C82.6608598,46.7460737 82.6608598,46.7325651 82.6619862,46.7190566 C82.6642391,46.6492623 82.6709977,46.5805937 82.6709977,46.5107994" id="Fill-43" fill="#E0D3C1"></path>
                    <path d="M82.7926529,48.9397531 C82.7960322,49.0500731 82.7982851,49.1637703 82.8005379,49.2797189 C82.7982851,49.1637703 82.7949057,49.0500731 82.7926529,48.9397531" id="Fill-45" fill="#E0D3C1"></path>
                    <path d="M82.8031287,49.433604 C82.8042552,49.5292897 82.806508,49.6272269 82.8076345,49.7274154 C82.806508,49.6272269 82.8042552,49.5292897 82.8031287,49.433604" id="Fill-47" fill="#E0D3C1"></path>
                    <path d="M82.7879218,52.280648 C82.7879218,52.2997851 82.7867954,52.320048 82.785669,52.3391851 C82.7867954,52.320048 82.7879218,52.2997851 82.7879218,52.280648" id="Fill-49" fill="#E0D3C1"></path>
                    <path d="M82.7670828,52.9202789 L82.7670828,52.9169017 L82.7670828,52.9202789" id="Fill-51" fill="#E0D3C1"></path>
                    <path d="M82.779023,48.476184 C82.7835287,48.6000126 82.786908,48.7294697 82.7902874,48.862304 C82.786908,48.728344 82.7835287,48.6000126 82.779023,48.476184" id="Fill-53" fill="#E0D3C1"></path>
                    <path d="M82.8098874,49.9527834 C82.8110138,50.0349606 82.8110138,50.1193891 82.8110138,50.2038177 C82.8110138,50.1193891 82.8110138,50.0349606 82.8098874,49.9527834" id="Fill-55" fill="#E0D3C1"></path>
                    <path d="M82.8020023,51.66128 C82.8008759,51.70068 82.8008759,51.74008 82.7997494,51.77948 C82.8008759,51.74008 82.8008759,51.70068 82.8020023,51.66128" id="Fill-57" fill="#E0D3C1"></path>
                    <path d="M82.81,51.0683663 C82.81,51.1224006 82.8088736,51.1775606 82.8077471,51.2315949 C82.8088736,51.1775606 82.81,51.1224006 82.81,51.0683663" id="Fill-59" fill="#E0D3C1"></path>
                    <path d="M82.779023,48.4759589 C82.7373448,47.234296 82.6708851,46.5037074 82.6708851,46.5037074 L82.6708851,46.5104617 C82.6708851,46.5149646 82.6720115,46.5228446 82.6731379,46.5419817 C82.6866552,46.6995817 82.7418506,47.391896 82.779023,48.4759589" id="Fill-61" fill="#E0D3C1"></path>
                    <path d="M82.8123655,50.4990926 L82.8123655,50.7039726 L82.8123655,50.4990926" id="Fill-63" fill="#E0D3C1"></path>
                    <path d="M82.7861195,52.3387349 C82.787246,52.3195977 82.787246,52.2993349 82.7883724,52.2801977 C82.7928782,52.1102149 82.7962575,51.9447349 82.7996368,51.7803806 C82.8007632,51.7409806 82.8007632,51.7004549 82.8018897,51.6610549 C82.8041425,51.5158377 82.8063954,51.372872 82.8086483,51.2321577 C82.8086483,51.1769977 82.8097747,51.1218377 82.8097747,51.0678034 C82.8109011,50.9439749 82.8120276,50.8235234 82.8120276,50.703072 L82.8120276,50.4993177 L82.8120276,50.2032549 C82.8109011,50.1188263 82.8109011,50.0343977 82.8097747,49.9522206 C82.8097747,49.875672 82.8086483,49.8013749 82.8075218,49.7270777 C82.8063954,49.6280149 82.805269,49.528952 82.8030161,49.4332663 C82.8018897,49.3814834 82.8007632,49.3308263 82.8007632,49.2801691 C82.7985103,49.1642206 82.795131,49.0493977 82.7928782,48.9402034 C82.7917517,48.914312 82.7917517,48.8884206 82.7906253,48.8625291 C82.787246,48.7296949 82.7827402,48.599112 82.7793609,48.4764091 L82.7793609,48.4764091 C82.7421885,47.3923463 82.6869931,46.700032 82.6734759,46.5413063 C82.6700966,46.6009691 82.6655908,46.6595063 82.6622115,46.7180434 C82.6520736,47.070392 82.6261655,47.4159863 82.581108,47.7548263 C82.1879816,52.2982091 81.1910851,57.7466663 78.8447172,62.3508377 C79.6230851,62.6592834 80.4803034,62.9440891 81.4501655,63.1861177 C82.3141425,59.5185406 82.6554529,55.8667234 82.7669701,52.9207291 L82.7669701,52.917352 C82.7748552,52.7214777 82.7804874,52.5289806 82.7861195,52.3387349" id="Fill-65" fill="#E0D3C1"></path>
                    <path d="M82.6735885,46.5415314 C82.6724621,46.5223943 82.6713356,46.51564 82.6713356,46.5111371 C82.6702092,46.5809314 82.664577,46.6484743 82.6623241,46.7182686 C82.6657034,46.6597314 82.6702092,46.6011943 82.6735885,46.5415314" id="Fill-67" fill="#E0D3C1"></path>
                    <path d="M24.6055471,0.555089714 L24.6055471,45.5431354 L64.9781678,45.5431354 L64.9781678,0.555089714 L59.6129494,5.22230114 L30.3796621,5.22230114 L24.6055471,0.555089714 Z" id="Fill-69" fill="#F26E26"></path>
                    <path d="M64.9785057,13.0895806 L64.9785057,31.1482891 L49.7006437,36.1228206 C50.5285747,14.8378149 62.5172414,13.1999006 64.9785057,13.0895806" id="Fill-71" fill="#ECDDC9"></path>
                    <path id="Fill-73" fill="#F26E26"></path>
                    <path d="M34.8486874,17.3065063 C46.9635149,25.7977691 45.3684805,36.1419577 45.3684805,36.1419577 L24.6059977,31.2923806 L24.6059977,13.0895806 C24.6059977,13.0895806 30.4139057,14.1984091 34.8486874,17.3065063" id="Fill-75" fill="#ECDDC9"></path>
                    <path d="M35.4426575,24.6774583 C36.0621977,25.2909726 36.0667034,26.2894811 35.4527954,26.908624 C34.8400138,27.5266411 33.8408644,27.531144 33.2213241,26.9187554 C32.6017839,26.3052411 32.5972782,25.3067326 33.2111862,24.6875897 C33.8239678,24.0684469 34.8242437,24.063944 35.4426575,24.6774583" id="Fill-77" fill="#272724"></path>
                    <path d="M59.9517816,24.5652246 C60.5713218,25.1776131 60.5758276,26.1772474 59.9619195,26.7963903 C59.3491379,27.4144074 58.3488621,27.4189103 57.7304483,26.8065217 C57.110908,26.1930074 57.1064023,25.1944989 57.7203103,24.575356 C58.333092,23.9562131 59.3333678,23.9517103 59.9517816,24.5652246" id="Fill-79" fill="#272724"></path>
                    <path d="M45.3687057,36.1420703 C45.3687057,36.1420703 45.4250276,34.4478703 44.740154,31.8418417 L50.0456713,31.8227046 C49.8789586,33.1600531 49.7595563,34.5885846 49.6998552,36.1218074" id="Fill-81" fill="#272724"></path>
                    <path d="M44.7395908,31.8416166 L50.0462345,31.8224794 C49.9910391,32.2570051 49.9448552,32.7050394 49.9009241,33.1587023 L45.0459816,33.175588 C44.9648782,32.7647023 44.8646253,32.3189194 44.7395908,31.8416166" id="Fill-83" fill="#333330"></path>
                    <path d="M64.9785057,13.0993743 L64.9785057,15.3733171 C61.1610115,15.88214 51.3587586,18.8720371 49.8763678,36.0853343 L49.7333103,36.1326143 C50.5612414,14.8476086 62.5172414,13.2096943 64.9785057,13.0993743" id="Fill-85" fill="#E0D3C1"></path>
                    <path d="M24.6228943,13.0992617 L24.6059977,15.3732046 C29.8856069,15.8820274 43.3972161,18.8719246 45.4484575,36.0852217 L45.6455839,36.1325017 C44.4999977,14.847496 28.0281126,13.2095817 24.6228943,13.0992617" id="Fill-87" fill="#E0D3C1"></path>
                    <path d="M24.6055471,32.9141971 L24.6055471,92.4847457 C28.6314322,92.4847457 44.1942828,87.8569343 48.1120299,82.9127971 C52.0286506,86.9158371 61.9311563,89.07158 64.9781678,88.83518 L64.9781678,33.1494714 L48.1120299,42.9566943 L24.6055471,32.9141971 Z" id="Fill-89" fill="#BAD6D5"></path>
                    <path d="M78.4101379,29.2848943 C78.748069,30.1201743 78.8843678,30.9813457 78.675977,31.82338 C78.2490575,33.5524771 75.3451034,35.2917057 75.3451034,35.2917057 C75.3451034,35.2917057 75.877908,38.0452029 77.2915862,39.6932486 C80.2349655,37.8695914 82.5351494,36.2350543 83.1546897,33.3453457 C83.4227816,32.0958029 83.3856092,30.69654 83.0330345,29.1621914 C81.5078391,29.2286086 79.9522299,29.2207286 78.4101379,29.2848943" id="Fill-91" fill="#F26E26"></path>
                    <path d="M64.9785057,38.06434 C64.9785057,38.06434 70.2795172,38.7701629 75.3451034,34.1795 C76.6416322,35.9457457 77.9967356,38.2422029 78.2907356,40.3011343 C73.9314253,42.8914029 70.8934253,43.8054829 64.9785057,44.0689 L64.9785057,38.06434 Z" id="Fill-93" fill="#BAD6D5"></path>
                    <path d="M48.1114667,42.9566943 C48.1114667,42.9566943 50.2877425,46.5218314 51.3296966,51.0685914 C59.5481793,42.98934 62.822731,37.3292486 64.978731,33.1494714 C60.702777,35.6350486 48.1114667,42.9566943 48.1114667,42.9566943" id="Fill-95" fill="#9BBBB9"></path>
                    <path d="M48.1114667,42.9566943 C48.1114667,42.9566943 50.8464552,44.48654 51.8884092,49.0333 C57.5926851,43.0535057 62.7089609,37.4564543 64.978731,33.1494714 C60.702777,35.6350486 48.1114667,42.9566943 48.1114667,42.9566943" id="Fill-97" fill="#CBE4E2"></path>
                    <path d="M62.9950759,7.18126914 C63.7295126,7.22292057 64.230777,7.26794914 64.9719724,7.71260629 C65.0992598,7.78352629 65.3200414,7.96364057 65.3200414,8.27546343 C65.3200414,9.41693771 65.3549609,10.7722977 65.3583402,11.5231491 C65.3594667,11.834972 64.9821103,12.0544863 64.9821103,12.0544863 C64.9821103,12.0544863 63.1786851,11.4679891 62.6334897,11.4679891 C62.9342483,9.352772 62.9793057,7.64056057 62.9950759,7.18126914" id="Fill-99" fill="#575757"></path>
                    <path d="M30.3794368,5.22185086 L29.6033218,4.59370229 C28.621069,5.18695371 27.8978966,5.81960514 27.4507011,6.48152514 C25.9345172,8.72732514 25.6664253,12.7843994 27.4495747,15.6572223 C29.6461264,19.1987194 32.0724713,19.6523823 34.4379885,19.3281766 C36.131023,19.0951537 40.4644253,18.219348 41.4680805,15.7968109 C42.1214138,14.2196851 43.3514828,11.190388 44.7167241,11.2680623 C46.0819655,11.3457366 48.8394828,14.192668 50.7195057,15.642588 C52.4835057,17.0024509 57.4443333,16.6579823 58.714954,16.3788051 C62.9131839,15.4568451 62.8084253,10.4158966 62.9931609,7.17609086 C63.0979195,5.36481657 62.6259425,4.18281657 61.8013908,3.318268 L59.6127241,5.22185086 L30.3794368,5.22185086 Z" id="Fill-101" fill="#8BD3DF"></path>
                    <path d="M30.3794368,5.22185086 L59.6127241,5.22185086 L61.8013908,3.318268 C61.1514368,2.63608514 60.2818276,2.15090229 59.2984483,1.710748 C56.9013908,0.636816571 52.8372069,-0.137674857 44.620977,0.735879429 C37.5323103,1.490108 32.4577126,2.87023371 29.6033218,4.59370229 L30.3794368,5.22185086 Z" id="Fill-103" fill="#D6EEF3"></path>
                    <path d="M62.8403034,5.21779829 C62.6803494,8.37655257 62.3243954,12.3919754 58.6229241,13.2058669 C57.3523034,13.485044 52.3914759,13.8283869 50.6274759,12.468524 C48.7474529,11.0197297 45.9899356,8.17279829 44.6246943,8.095124 C43.2594529,8.016324 42.0293839,11.0456211 41.3760506,12.6238726 C40.3723954,15.045284 36.0389931,15.9222154 34.3459586,16.1541126 C31.9804414,16.479444 29.5540966,16.0257811 27.3575448,12.484284 C26.8303724,11.6343697 26.4879356,10.6302326 26.3043264,9.58219257 C26.0767862,11.649004 26.3966943,13.957844 27.4510391,15.6576726 C29.6475908,19.1991697 32.0739356,19.6528326 34.4394529,19.3275011 C36.1324874,19.095604 40.4658897,18.2186726 41.4695448,15.7972611 C42.1228782,14.2190097 43.3529471,11.1897126 44.7181885,11.2685126 C46.0823034,11.3461869 48.8409471,14.1931183 50.7209701,15.6419126 C52.4849701,17.0017754 57.4457977,16.6584326 58.7164184,16.3792554 C62.9146483,15.4561697 62.8098897,10.4152211 62.9946253,7.17654114 C63.0385563,6.42118686 62.981108,5.77727829 62.8403034,5.21779829" id="Fill-105" fill="#8BD3DF"></path>
                    <path d="M27.5289885,12.6620343 C27.5289885,12.6620343 29.3977471,15.8523086 32.4109655,15.8556857 C34.2808506,15.8568114 37.4641609,14.7130857 38.1602989,14.42828 C41.7175862,12.9727314 42.6514023,9.79258857 42.6514023,9.79258857 C42.6514023,9.79258857 41.7784138,13.9678629 39.225908,15.0181543 C38.2188736,15.4324171 34.4723448,17.1682686 31.7745287,16.6864629 C29.2141379,16.2294229 27.8432644,13.5254571 27.5289885,12.6620343" id="Fill-107" fill="#7CBEBE"></path>
                    <path d="M62.2779862,8.46773543 C62.2779862,8.46773543 61.9614575,11.7998497 59.4799172,12.555204 C57.2078943,13.2463926 53.6787678,12.9480783 52.9736184,12.8400097 C49.3735264,12.2884097 47.0181471,9.43134686 47.0181471,9.43134686 C47.0181471,9.43134686 48.4318253,12.3165526 52.5421931,13.626884 C53.5300782,13.942084 58.0820092,14.328204 60.090446,13.343204 C62.184492,12.3165526 62.2227908,9.37618686 62.2779862,8.46773543" id="Fill-109" fill="#7CBEBE"></path>
                    <path d="M61.5094184,13.9839606 C60.3446828,15.6860406 58.7136023,15.8897949 57.1073034,16.137452 C55.9729816,16.3130634 53.8158552,16.4087491 51.6868897,15.7423263 C50.9592115,15.5138063 49.1118552,14.222612 48.7694184,13.8184806 C48.4269816,13.4143491 46.0344299,10.652972 44.6770736,10.8634806 C43.8705448,10.9895606 42.9423609,11.898012 42.4230736,12.7242863 C41.694269,13.8815206 40.7615793,16.397492 39.5427747,17.2980634 C37.5884069,18.7412291 35.3276483,19.2365434 33.2685218,19.257932 C30.7148897,19.2838234 28.4135793,17.0031263 28.4135793,17.0031263 C28.8247287,17.8429091 30.7993724,20.0943377 33.0635103,20.0977149 C36.5284299,20.1033434 38.6145908,19.4065263 40.3650736,17.9509777 C41.5388207,16.9761091 42.2135563,14.2473777 43.0459931,13.1531834 C43.4075793,12.6770063 44.1803149,11.5321549 44.7435333,11.448852 C45.3619471,11.3576691 46.5931425,12.4687491 47.0178092,12.9640634 C47.5776483,13.6169777 48.2512575,14.600852 49.5703149,15.7423263 C49.9870966,16.1025549 51.6733724,16.9941206 52.9011885,17.2046291 C55.3320391,17.6211434 58.5052115,17.0492806 59.5325218,16.7689777 C60.5598322,16.4886749 61.2616023,15.4946691 61.7425908,14.6841549 C62.1188207,14.0526291 62.4590046,12.8796349 62.5209586,11.5726806 C62.2776483,12.5509263 62.2179471,12.9494291 61.5094184,13.9839606" id="Fill-111" fill="#7CBEBE"></path>
                    <path d="M60.9722207,4.54056857 C60.8978759,4.44150571 60.8133931,4.34694571 60.7244046,4.25463714 L60.6433011,4.32555714 C60.7469333,4.39197429 60.8550713,4.46289429 60.9722207,4.54056857" id="Fill-113" fill="#8BD3DF"></path>
                    <path d="M29.2464667,7.422172 C30.2354782,6.85593771 32.7035011,5.90245771 35.3742828,5.22140057 L32.1459149,5.22140057 C31.1208575,5.57262343 30.1442368,5.99138914 29.4244437,6.48557771 C28.1763517,7.34449771 27.3461678,9.07922343 27.3461678,9.07922343 C27.3461678,9.07922343 28.0073862,8.131372 29.2464667,7.422172" id="Fill-115" fill="#8BD3DF"></path>
                    <path d="M60.7244046,4.25508743 C60.0384046,3.54926457 58.953646,3.05169886 58.1167034,2.79391029 C57.1704966,2.50122457 53.9804276,2.19503029 49.625623,2.408916 C44.9047264,2.64081314 38.5223356,3.66071029 37.2111632,3.93651029 C36.3449333,4.118876 34.149508,4.53764171 32.1467034,5.222076 L35.3739448,5.222076 C36.047554,5.04984171 36.733554,4.89449314 37.411669,4.76841314 C40.7842207,4.14026457 47.1046575,3.322996 49.6740598,3.21380171 C52.6793931,3.086596 55.6171402,3.09335029 57.9409793,3.41980743 C59.3670483,3.61905886 59.8626805,3.82506457 60.6433011,4.32488171 L60.7244046,4.25508743 Z" id="Fill-117" fill="#BEE5EC"></path>
                    <path d="M26.2260391,11.1365789 L24.5814414,11.4675389 C24.5814414,11.4675389 24.1714184,11.5789846 24.1714184,11.9954989 L24.1714184,16.0311846 C24.1714184,16.3126131 24.5814414,16.4533274 24.5814414,16.4533274 C24.5814414,16.4533274 25.6526828,15.8668303 27.4504759,15.6574474 C26.7137862,14.0409217 26.4389356,13.5793789 26.2260391,11.1365789" id="Fill-119" fill="#575757"></path>
                    <path d="M48.1114667,42.9566943 L48.1114667,82.9127971 C48.1114667,82.9127971 37.8710299,93.1005114 24.6049839,93.1005114 L24.6049839,32.9141971 L48.1114667,42.9566943 Z" id="Fill-121" fill="#CBE4E2"></path>
                    <path d="M24.6055471,32.9141971 L48.1120299,42.9566943 C48.1120299,42.9566943 45.8512713,46.5218314 44.7394782,51.0685914 C36.4703057,46.9057 27.4227655,37.2707114 24.6055471,32.9141971" id="Fill-123" fill="#9BBBB9"></path>
                    <path d="M41.7251333,54.8449126 L46.4572943,57.014164 L35.9160989,88.873004 L24.6055471,81.7990154 L24.6055471,72.8878611 L41.7251333,54.8449126 Z" id="Fill-125" fill="#BAD6D5"></path>
                    <path d="M24.6055471,32.9141971 L48.1120299,42.9566943 C48.1120299,42.9566943 45.4344897,44.9334486 44.3226966,49.4802086 C35.8778,44.3233114 27.0363977,35.8748257 24.6055471,32.9141971" id="Fill-127" fill="#DEEEEC"></path>
                    <path d="M64.9785057,42.4089217 C64.9785057,42.4089217 68.2113793,43.4941103 75.202046,41.9462531 C71.3057011,44.0682246 64.9785057,44.0682246 64.9785057,44.0682246 L64.9785057,42.4089217 Z" id="Fill-129" fill="#9BBBB9"></path>
                    <path d="M52.0697655,54.6160549 L61.8945471,53.8798377 L61.8945471,55.4907349 L52.0697655,56.4543463 L52.0697655,54.6160549 Z" id="Fill-131" fill="#9BBBB9"></path>
                    <path d="M52.0697655,54.6160549 C52.0697655,54.6160549 57.8416276,55.352272 61.8945471,53.8798377 L61.8945471,64.4345349 C61.8945471,65.7032149 59.9255356,67.6191806 57.7244782,67.8139291 C54.6042483,68.0919806 52.0697655,66.7062263 52.0697655,64.8026434 L52.0697655,54.6160549 Z" id="Fill-133" fill="#CBE4E2"></path>
                    <path d="M73.7267517,43.634712 L76.6554874,7.13567771 L70.8836253,6.67300914 L67.9548897,43.1720434 L67.9548897,43.1720434 L67.9548897,43.1720434 L67.9346138,43.4287063 L67.9470046,43.429832 C67.9593954,44.9123977 69.1016023,46.1664434 70.6087747,46.2880206 C72.1159471,46.408472 73.4451425,45.352552 73.6929586,43.8902491 L73.7064759,43.8913749 L73.7267517,43.634712 L73.7267517,43.634712 L73.7267517,43.634712 Z" id="Fill-135" fill="#7CBEBE"></path>
                    <path d="M71.6937586,7.27110114 L69.6154828,33.169284 L69.6244943,33.1704097 C69.6335057,34.2150726 70.438908,35.0987583 71.5000115,35.1831869 C72.5622414,35.2687411 73.4983103,34.524644 73.672908,33.4946154 L73.6819195,33.4957411 L75.7601954,7.59755829 L71.6937586,7.27110114 Z" id="Fill-137" fill="#FFFFFF"></path>
                    <path d="M73.8681195,5.73855371 C72.203246,5.60571943 71.1297517,5.895028 70.7569011,6.70779371 C70.617223,7.01286229 70.5980736,7.41136514 70.679177,7.67815943 C70.8796828,8.33445086 71.9317747,8.99749657 73.5955218,9.13033086 C75.2603954,9.26429086 76.3203724,8.818508 76.7067402,8.16109086 C76.8565563,7.90555371 76.9297747,7.52731371 76.7844644,7.19072514 C76.4544184,6.42636514 75.5329931,5.871388 73.8681195,5.73855371" id="Fill-139" fill="#8AC5C3"></path>
                    <path d="M70.8721356,17.5103731 L68.7938598,43.408556 L68.8028713,43.4096817 C68.8118828,44.4543446 69.6172851,45.3380303 70.6783885,45.4224589 C71.7406184,45.5080131 72.6766874,44.763916 72.8512851,43.7338874 L72.8602966,43.7350131 L74.963354,17.5610303 L70.8721356,17.5103731 Z" id="Fill-141" fill="#934E9D"></path>
                    <path d="M71.9981218,7.35057657 C72.3304207,7.61962229 72.9724897,7.83463371 73.7260759,7.89542229 C74.4774092,7.95621086 75.1453862,7.84589086 75.5171103,7.63313086 C75.1848115,7.36408514 74.5416161,7.14907371 73.7891563,7.08828514 C73.037823,7.02862229 72.369846,7.13781657 71.9981218,7.35057657" id="Fill-143" fill="#B4E0DE"></path>
                    <path d="M74.8956552,17.7267354 C74.6174253,18.1803983 73.5056322,18.473084 72.4096092,18.3819011 C71.3147126,18.2907183 70.6523678,17.8483126 70.9305977,17.3946497 C71.2077011,16.9409869 72.3206207,16.6483011 73.4155172,16.739484 C74.5104138,16.8317926 75.1738851,17.2730726 74.8956552,17.7267354" id="Fill-145" fill="#A465A8"></path>
                    <g id="Group-177" transform="translate(67.586207, 9.005714)" fill="#FFFFFF">
                        <path d="M5.46535862,3.59553143 C4.49887586,3.51448 3.65742759,3.26119429 3.13926667,2.93248571 L3.0728069,3.73849714 C3.59209425,4.06720571 4.43241609,4.32049143 5.39889885,4.40154286 L5.46535862,3.59553143 Z" id="Fill-147"></path>
                        <path d="M5.64468736,1.41344686 C4.6782046,1.33239543 3.83675632,1.07910971 3.3185954,0.750401143 L3.25213563,1.55641257 C3.77142299,1.88512114 4.61174483,2.13840686 5.57822759,2.21945829 L5.64468736,1.41344686 Z" id="Fill-149"></path>
                        <path d="M5.28614253,5.77772857 C4.31965977,5.69667714 3.47821149,5.44339143 2.96005057,5.11468286 L2.8935908,5.92069429 C3.41287816,6.24940286 4.2532,6.50268857 5.21968276,6.58374 L5.28614253,5.77772857 Z" id="Fill-151"></path>
                        <path d="M5.10681379,7.95981314 C4.14033103,7.87876171 3.29888276,7.625476 2.78072184,7.29676743 L2.71426207,8.10277886 C3.23354943,8.43148743 4.07387126,8.68477314 5.04035402,8.76582457 L5.10681379,7.95981314 Z" id="Fill-153"></path>
                        <path d="M4.9275977,10.1420103 C3.96111494,10.0609589 3.11966667,9.80767314 2.60150575,9.47896457 L2.53504598,10.284976 C3.05433333,10.6136846 3.89465517,10.8669703 4.86113793,10.9480217 L4.9275977,10.1420103 Z" id="Fill-155"></path>
                        <path d="M4.74826897,12.3240949 C3.78178621,12.2430434 2.94033793,11.9897577 2.42217701,11.6610491 L2.35571724,12.4670606 C2.8750046,12.7957691 3.71532644,13.0490549 4.6818092,13.1301063 L4.74826897,12.3240949 Z" id="Fill-157"></path>
                        <path d="M4.56905287,14.506292 C3.60257011,14.4252406 2.76112184,14.1719549 2.24296092,13.8432463 L2.17650115,14.6492577 C2.69578851,14.9779663 3.53611034,15.231252 4.5025931,15.3123034 L4.56905287,14.506292 Z" id="Fill-159"></path>
                        <path d="M4.38972414,16.6883766 C3.42324138,16.6073251 2.5817931,16.3540394 2.06363218,16.0253309 L1.99717241,16.8313423 C2.51645977,17.1600509 3.35678161,17.4133366 4.32326437,17.494388 L4.38972414,16.6883766 Z" id="Fill-161"></path>
                        <path d="M4.21050805,18.8705737 C3.24402529,18.7895223 2.40257701,18.5362366 1.88441609,18.207528 L1.81795632,19.0135394 C2.33724368,19.342248 3.17756552,19.5955337 4.14404828,19.6765851 L4.21050805,18.8705737 Z" id="Fill-163"></path>
                        <path d="M3.67274713,25.41694 C2.70626437,25.3358886 1.86481609,25.0826029 1.34665517,24.7538943 L1.2801954,25.5599057 C1.79948276,25.8886143 2.6398046,26.1419 3.60628736,26.2229514 L3.67274713,25.41694 Z" id="Fill-165"></path>
                        <path d="M3.49341839,27.5991371 C2.52693563,27.5180857 1.68548736,27.2648 1.16732644,26.9360914 L1.10086667,27.7421029 C1.62015402,28.0708114 2.46047586,28.3240971 3.42695862,28.4051486 L3.49341839,27.5991371 Z" id="Fill-167"></path>
                        <path d="M3.3142023,29.7812217 C2.34771954,29.7001703 1.50627126,29.4468846 0.988110345,29.118176 L0.921650575,29.9241874 C1.44093793,30.252896 2.28125977,30.5061817 3.24774253,30.5872331 L3.3142023,29.7812217 Z" id="Fill-169"></path>
                        <path d="M3.13487356,31.9633063 C2.1683908,31.8822549 1.32694253,31.6289691 0.808781609,31.3002606 L0.742321839,32.106272 C1.2616092,32.4349806 2.10193103,32.6882663 3.06841379,32.7693177 L3.13487356,31.9633063 Z" id="Fill-171"></path>
                        <path d="M4.03129195,21.0526583 C3.0648092,20.9716069 2.22336092,20.7183211 1.7052,20.3896126 L1.63874023,21.195624 C2.15802759,21.5243326 2.99834943,21.7776183 3.96483218,21.8586697 L4.03129195,21.0526583 Z" id="Fill-173"></path>
                        <path d="M3.85196322,23.2348554 C2.88548046,23.153804 2.04403218,22.9005183 1.52587126,22.5718097 L1.45941149,23.3778211 C1.97869885,23.7065297 2.81902069,23.9598154 3.78550345,24.0408669 L3.85196322,23.2348554 Z" id="Fill-175"></path>
                    </g>


                </g>
            </g>
        </g>
    </g>
</svg>
