<?xml version="1.0" encoding="UTF-8" standalone="no"?>
<svg width="200px" height="200px" viewBox="0 0 200 200" version="1.1" xmlns="http://www.w3.org/2000/svg" xmlns:xlink="http://www.w3.org/1999/xlink" xmlns:sketch="http://www.bohemiancoding.com/sketch/ns">
    <!-- Generator: Sketch 3.4.2 (15857) - http://www.bohemiancoding.com/sketch -->
    <title>science-fox</title>
    <desc>Created with Sketch.</desc>
    <defs></defs>
    <g id="Page-1" stroke="none" stroke-width="1" fill="none" fill-rule="evenodd" sketch:type="MSPage">
        <g id="science-fox" sketch:type="MSArtboardGroup">
            <g id="Page-1" sketch:type="MSLayerGroup">
                <path d="M0,0.689387429 L0,127.599039 L52.4390115,173.310919 L173.576023,56.3717189 L126.140644,0.689387429 L0,0.689387429 Z" id="Fill-1" fill="#006837" sketch:type="MSShapeGroup"></path>
                <g id="Group-6" transform="translate(25.908046, 28.142857)" sketch:type="MSShapeGroup">
                    <path d="M0.849896552,84.644596 C0.849896552,131.153482 38.5787701,168.85703 85.1175057,168.85703 C131.646103,168.85703 169.374977,131.153482 169.374977,84.644596 C169.374977,38.136836 131.646103,0.434413143 85.1175057,0.434413143 L0.849896552,0.434413143 L0.849896552,84.644596 Z" id="Fill-2" fill="#006837"></path>
                    <path d="M8.09862989,84.6447086 C8.09862989,127.152806 42.5822391,161.613171 85.1176184,161.613171 C127.64286,161.613171 162.126469,127.152806 162.126469,84.6447086 C162.126469,42.1377371 127.64286,7.67849714 85.1176184,7.67849714 L8.09862989,7.67849714 L8.09862989,84.6447086 Z" id="Fill-4" fill="#FFFFFF"></path>
                </g>
                <g id="Group-296" transform="translate(65.333333, 54.034286)" sketch:type="MSShapeGroup">
                    <path d="M59.2985609,1.71086057 C61.5277793,2.70936914 63.1791356,3.93752343 62.9932736,7.17620343 C62.8085379,10.4160091 62.9132966,15.4569577 58.7150667,16.3789177 C57.444446,16.6580949 52.4836184,17.0025634 50.7196184,15.6427006 C48.8395954,14.1927806 46.0809517,11.3458491 44.7168368,11.2681749 C43.3515954,11.1905006 42.1215264,14.2197977 41.4681931,15.7969234 C40.4645379,18.2194606 36.1311356,19.0952663 34.4381011,19.3282891 C32.0725839,19.6524949 29.6462391,19.198832 27.4496874,15.6573349 C25.6665379,12.784512 25.9346299,8.72743771 27.4508138,6.48163771 C29.1990437,3.89362057 35.0959402,1.74913486 44.6199632,0.735992 C52.8373195,-0.137562286 56.9015034,0.636929143 59.2985609,1.71086057" id="Fill-7" fill="#FFFFFF"></path>
                    <path d="M24.6054345,93.1008491 C24.6054345,93.1008491 38.4132966,94.5192491 46.3805839,93.2640777 C54.9460092,91.9143463 64.9780552,88.8355177 64.9780552,88.8355177 L64.9780552,78.0005177 L24.6054345,78.0005177 L24.6054345,93.1008491 Z" id="Fill-9" fill="#9EBEBC"></path>
                    <path d="M44.933,103.391679 C30.8176207,103.391679 19.3752759,106.337673 19.3752759,109.971479 C19.3752759,113.605285 30.8176207,116.551279 44.933,116.551279 C59.0483793,116.551279 70.4907241,113.605285 70.4907241,109.971479 C70.4907241,106.337673 59.0483793,103.391679 44.933,103.391679" id="Fill-11" fill="#D9D9D8"></path>
                    <path d="M48.712646,81.7992406 L48.712646,107.930446 C48.712646,107.930446 55.8914276,111.038543 58.0350368,111.542863 C62.3042322,112.547001 63.9555885,108.802875 61.772554,108.366098 C59.5895195,107.930446 53.0787149,105.588961 53.0787149,105.588961 L53.0787149,82.912572 L48.712646,81.7992406 Z" id="Fill-13" fill="#F26E26"></path>
                    <path d="M40.8030322,83.7854509 L40.8030322,107.929771 C40.8030322,107.929771 33.0249862,111.267514 30.8644805,111.693034 C27.0469862,112.446137 25.5600897,108.803325 27.7431241,108.366548 C29.9261586,107.929771 36.4369632,105.588285 36.4369632,105.588285 L36.4369632,82.9130223 L40.8030322,83.7854509 Z" id="Fill-15" fill="#F26E26"></path>
                    <path d="M81.4625563,63.1354606 C79.2862805,72.4226034 73.7678667,81.8403291 60.167269,80.2429406 C60.167269,80.2429406 60.2494989,62.4825463 60.2494989,62.460032 C60.2528782,61.5785977 62.6510621,60.040872 63.2368092,59.6479977 C64.4522345,58.8307291 65.7972,58.2138377 67.2007402,57.7961977 C68.9850161,57.2648606 70.8740506,57.3470377 72.701131,57.0138263" id="Fill-17" fill="#F26E26"></path>
                    <path d="M78.8996874,62.245696 C75.7501701,68.5001646 70.1360092,73.2270389 60.2053425,72.0743074 C60.1850667,76.2664674 60.1670437,80.243616 60.1670437,80.243616 C73.7687678,81.8410046 79.2871816,72.4221531 81.4634575,63.1350103" id="Fill-19" fill="#D75C27"></path>
                    <path d="M82.6707724,46.5034823 C82.6426115,50.3410423 80.5023816,53.4694023 77.2199448,55.3268309 C76.1092782,55.9549794 74.9163816,56.433408 73.6908184,56.7857566 C73.3089563,56.8960766 72.9214621,56.9726251 72.5328414,57.0379166 C73.1737839,58.4777051 75.2509333,61.6375851 81.4497149,63.186568 C83.4254851,54.7999966 82.6707724,46.5034823 82.6707724,46.5034823" id="Fill-21" fill="#ECDDC9"></path>
                    <path d="M82.811577,50.2037051 C82.811577,50.3005166 82.8127034,50.3984537 82.8127034,50.4986423 C82.8127034,50.3984537 82.811577,50.3005166 82.811577,50.2037051" id="Fill-23" fill="#E0D3C1"></path>
                    <path d="M82.8074092,49.7270777 C82.8085356,49.8013749 82.8096621,49.8767977 82.8096621,49.9522206 C82.8096621,49.8767977 82.8085356,49.8013749 82.8074092,49.7270777" id="Fill-25" fill="#E0D3C1"></path>
                    <path d="M82.8119149,50.7035223 C82.8119149,50.8239737 82.8107885,50.9444251 82.8096621,51.0682537 C82.8107885,50.9444251 82.8119149,50.8239737 82.8119149,50.7035223" id="Fill-27" fill="#E0D3C1"></path>
                    <path d="M82.7906253,48.8625291 C82.7917517,48.8884206 82.7917517,48.914312 82.7928782,48.9402034 C82.7917517,48.914312 82.7917517,48.8884206 82.7906253,48.8625291" id="Fill-29" fill="#E0D3C1"></path>
                    <path id="Fill-31" fill="#E0D3C1"></path>
                    <path d="M82.8003126,49.2800566 C82.8014391,49.3307137 82.8025655,49.3813709 82.803692,49.4331537 C82.8025655,49.3813709 82.8014391,49.3307137 82.8003126,49.2800566" id="Fill-33" fill="#E0D3C1"></path>
                    <path d="M82.8081977,51.2320451 C82.8070713,51.3727594 82.8048184,51.5157251 82.8025655,51.6609423 C82.8048184,51.5157251 82.8070713,51.3727594 82.8081977,51.2320451" id="Fill-35" fill="#E0D3C1"></path>
                    <path d="M82.7996368,51.7800429 C82.7962575,51.9443971 82.7928782,52.1110029 82.7883724,52.2809857 C82.7928782,52.1110029 82.7962575,51.9443971 82.7996368,51.7800429" id="Fill-37" fill="#E0D3C1"></path>
                    <path d="M82.7861195,52.3387349 C82.7804874,52.5289806 82.7748552,52.7214777 82.7669701,52.917352 C82.7748552,52.7214777 82.7804874,52.5289806 82.7861195,52.3387349" id="Fill-39" fill="#E0D3C1"></path>
                    <path d="M82.659508,46.7609331 C82.6381057,47.072756 82.6121977,47.3902074 82.5851632,47.7121617 C82.5829103,47.7256703 82.5817839,47.7403046 82.5806575,47.7549389 C82.6257149,47.4160989 82.6527494,47.0705046 82.6617609,46.718156 C82.6617609,46.7327903 82.6606345,46.7462989 82.659508,46.7609331" id="Fill-41" fill="#E0D3C1"></path>
                    <path d="M82.6709977,46.5107994 C82.6709977,46.5096737 82.6698713,46.5029194 82.6698713,46.5029194 C82.6698713,46.5907251 82.6619862,46.6751537 82.6597333,46.760708 C82.6608598,46.7460737 82.6608598,46.7325651 82.6619862,46.7190566 C82.6642391,46.6492623 82.6709977,46.5805937 82.6709977,46.5107994" id="Fill-43" fill="#E0D3C1"></path>
                    <path d="M82.7926529,48.9397531 C82.7960322,49.0500731 82.7982851,49.1637703 82.8005379,49.2797189 C82.7982851,49.1637703 82.7949057,49.0500731 82.7926529,48.9397531" id="Fill-45" fill="#E0D3C1"></path>
                    <path d="M82.8031287,49.433604 C82.8042552,49.5292897 82.806508,49.6272269 82.8076345,49.7274154 C82.806508,49.6272269 82.8042552,49.5292897 82.8031287,49.433604" id="Fill-47" fill="#E0D3C1"></path>
                    <path d="M82.7879218,52.280648 C82.7879218,52.2997851 82.7867954,52.320048 82.785669,52.3391851 C82.7867954,52.320048 82.7879218,52.2997851 82.7879218,52.280648" id="Fill-49" fill="#E0D3C1"></path>
                    <path d="M82.7670828,52.9202789 L82.7670828,52.9169017 L82.7670828,52.9202789" id="Fill-51" fill="#E0D3C1"></path>
                    <path d="M82.779023,48.476184 C82.7835287,48.6000126 82.786908,48.7294697 82.7902874,48.862304 C82.786908,48.728344 82.7835287,48.6000126 82.779023,48.476184" id="Fill-53" fill="#E0D3C1"></path>
                    <path d="M82.8098874,49.9527834 C82.8110138,50.0349606 82.8110138,50.1193891 82.8110138,50.2038177 C82.8110138,50.1193891 82.8110138,50.0349606 82.8098874,49.9527834" id="Fill-55" fill="#E0D3C1"></path>





                </g>
            </g>
        </g>
    </g>
</svg>
