<?xml version="1.0" encoding="utf-8"?>
<!-- Generator: Adobe Illustrator 16.0.0, SVG Export Plug-In . SVG Version: 6.00 Build 0)  -->
<!DOCTYPE svg PUBLIC "-//W3C//DTD SVG 1.1//EN" "http://www.w3.org/Graphics/SVG/1.1/DTD/svg11.dtd">
<svg version="1.1" id="Layer_1" xmlns:sketch="http://www.bohemiancoding.com/sketch/ns"
	 xmlns="http://www.w3.org/2000/svg" xmlns:xlink="http://www.w3.org/1999/xlink" x="0px" y="0px" width="200px" height="200px"
	 viewBox="0 0 200 200" enable-background="new 0 0 200 200" xml:space="preserve">
<title>science-fox</title>
<desc>Created with Sketch.</desc>
<g id="Page-1_1_" sketch:type="MSPage">
	<g id="science-fox" sketch:type="MSArtboardGroup">
		<g id="Page-1" sketch:type="MSLayerGroup">
			<path id="Fill-1" sketch:type="MSShapeGroup" fill="#006837" d="M0,0.689V127.6l52.439,45.711L173.576,56.372L126.141,0.689H0z"
				/>
			<g id="Group-6" transform="translate(25.908046, 28.142857)" sketch:type="MSShapeGroup">
				<path id="Fill-2" fill="#006837" d="M0.85,84.645c0,46.509,37.729,84.212,84.268,84.212c46.529,0,84.258-37.704,84.258-84.212
					c0-46.508-37.729-84.21-84.258-84.21H0.85V84.645z"/>
				<path id="Fill-4" fill="#FFFFFF" d="M8.099,84.645c0,42.508,34.484,76.968,77.019,76.968c42.525,0,77.01-34.46,77.01-76.968
					c0-42.507-34.484-76.966-77.01-76.966H8.099V84.645z"/>

			<g id="Group-296" transform="translate(65.333333, 54.034286)" sketch:type="MSShapeGroup">
				<g><path id="Fill-5" fill="#006837" d="M28.25,0C12.648,0,0,12.648,0,28.25C0,43.852,12.648,56.5,28.25,56.5c15.602,0,28.25-12.648,28.25-28.25    C56.5,12.648,43.852,0,28.25,0z M23.889,42.103c-0.06,0.003-0.119,0.004-0.178,0.004c-1.951-0.001-3.573-1.078-4.216-2.507    c-0.692-1.432-0.742-2.966-0.752-4.417c0-0.865,0.033-1.703,0.033-2.44c-0.039-1.035-0.319-1.239-0.69-1.523    c-0.383-0.258-0.976-0.356-1.163-0.362c-0.037-0.004-0.037-0.004-0.037-0.004c-0.402,0-0.778-0.154-1.061-0.438    c-0.284-0.284-0.441-0.661-0.441-1.061v-0.819c0-0.396,0.161-0.781,0.439-1.061c0.28-0.28,0.667-0.438,1.063-0.438h1.042    c0.698-0.097,0.385,0.012,0.602-0.268c0.167-0.339,0.282-1.361,0.268-2.757c0-0.832-0.021-1.804-0.021-2.889    c-0.01-1.857,0.519-3.278,1.47-4.161c0.949-0.879,2.069-1.056,2.819-1.054c0.688,0.002,1.153,0.136,1.242,0.161    c0.797,0.23,1.254,1.064,1.023,1.859c-0.231,0.791-1.057,1.248-1.849,1.024v0.001c-0.013-0.002-0.04-0.01-0.081-0.017    c-0.078-0.015-0.202-0.029-0.335-0.029c-0.319,0.002-0.593,0.074-0.772,0.247c-0.175,0.169-0.508,0.605-0.517,1.968    c0,1.046,0.021,2.008,0.021,2.889c-0.014,1.489-0.022,2.73-0.506,3.929c-0.17,0.488-0.498,0.926-0.918,1.273    c0.8,0.78,1.439,1.991,1.404,3.53c0,0.822-0.035,1.656-0.033,2.44c-0.012,1.315,0.126,2.493,0.439,3.08    c0.342,0.546,0.465,0.774,1.707,0.843c0.828,0,1.499,0.669,1.499,1.498C25.388,41.432,24.716,42.103,23.889,42.103z     M43.601,29.354c0,0.399-0.156,0.776-0.438,1.061c-0.284,0.282-0.661,0.438-1.061,0.438c-0.002,0.002-0.002,0-0.039,0.004    c-0.054,0.004-0.138,0.011-0.245,0.029c-0.212,0.035-0.499,0.108-0.741,0.232c-0.479,0.305-0.813,0.461-0.867,1.625    c0,0.737,0.033,1.575,0.033,2.44c-0.013,1.45-0.061,2.984-0.754,4.416c-0.645,1.429-2.267,2.507-4.219,2.507    c-0.057,0-0.114-0.001-0.173-0.003c-0.827,0-1.499-0.671-1.499-1.499c0-0.83,0.672-1.499,1.499-1.499    c1.24-0.068,1.363-0.297,1.706-0.843c0.313-0.589,0.453-1.765,0.44-3.079c0-0.787-0.033-1.621-0.033-2.44    c-0.035-1.539,0.603-2.749,1.402-3.529c-0.422-0.349-0.751-0.787-0.92-1.276c-0.484-1.199-0.49-2.44-0.505-3.93    c0-0.881,0.022-1.843,0.022-2.887c-0.01-1.363-0.342-1.798-0.519-1.967c-0.18-0.173-0.455-0.247-0.772-0.25    c-0.2,0-0.377,0.035-0.416,0.045c-0.791,0.223-1.616-0.233-1.846-1.023c-0.232-0.797,0.225-1.629,1.02-1.86    c0.091-0.025,0.557-0.159,1.242-0.161c0.747-0.002,1.868,0.173,2.817,1.052c0.953,0.884,1.482,2.305,1.475,4.163    c-0.002,1.085-0.024,2.058-0.022,2.887c-0.015,1.396,0.099,2.418,0.268,2.76c0.214,0.28-0.099,0.171,0.602,0.266h1.044    c0.399,0,0.776,0.157,1.061,0.439c0.282,0.284,0.438,0.661,0.438,1.061V29.354z"/></g>
		</g>
	</g>
</g>
</svg>
