<?xml version="1.0" encoding="UTF-8" standalone="no"?>
<svg width="200px" height="200px" viewBox="0 0 200 200" version="1.1" xmlns="http://www.w3.org/2000/svg" xmlns:xlink="http://www.w3.org/1999/xlink" xmlns:sketch="http://www.bohemiancoding.com/sketch/ns">
    <!-- Generator: Sketch 3.4.2 (15857) - http://www.bohemiancoding.com/sketch -->
    <title>science-fox</title>
    <desc>Created with Sketch.</desc>
    <defs></defs>
    <g id="Page-1" stroke="none" stroke-width="1" fill="none" fill-rule="evenodd" sketch:type="MSPage">
        <g id="science-fox" sketch:type="MSArtboardGroup">
            <g id="Page-1" sketch:type="MSLayerGroup">
                <path d="M0,0.689387429 L0,127.599039 L52.4390115,173.310919 L173.576023,56.3717189 L126.140644,0.689387429 L0,0.689387429 Z" id="Fill-1" fill="#006837" sketch:type="MSShapeGroup"></path>
                <g id="Group-6" transform="translate(25.908046, 28.142857)" sketch:type="MSShapeGroup">
                    <path d="M0.849896552,84.644596 C0.849896552,131.153482 38.5787701,168.85703 85.1175057,168.85703 C131.646103,168.85703 169.374977,131.153482 169.374977,84.644596 C169.374977,38.136836 131.646103,0.434413143 85.1175057,0.434413143 L0.849896552,0.434413143 L0.849896552,84.644596 Z" id="Fill-2" fill="#006837"></path>
                    <path d="M8.09862989,84.6447086 C8.09862989,127.152806 42.5822391,161.613171 85.1176184,161.613171 C127.64286,161.613171 162.126469,127.152806 162.126469,84.6447086 C162.126469,42.1377371 127.64286,7.67849714 85.1176184,7.67849714 L8.09862989,7.67849714 L8.09862989,84.6447086 Z" id="Fill-4" fill="#FFFFFF"></path>
                </g>
                <g id="Group-296" transform="translate(65.333333, 54.034286)" sketch:type="MSShapeGroup">


                </g>
            </g>
        </g>
    </g>
</svg>
