<?xml version="1.0" encoding="UTF-8" standalone="no"?>
<svg
   xmlns:sketch="http://www.bohemiancoding.com/sketch/ns"
   xmlns:dc="http://purl.org/dc/elements/1.1/"
   xmlns:cc="http://creativecommons.org/ns#"
   xmlns:rdf="http://www.w3.org/1999/02/22-rdf-syntax-ns#"
   xmlns:svg="http://www.w3.org/2000/svg"
   xmlns="http://www.w3.org/2000/svg"
   xmlns:sodipodi="http://sodipodi.sourceforge.net/DTD/sodipodi-0.dtd"
   xmlns:inkscape="http://www.inkscape.org/namespaces/inkscape"
   width="200px"
   height="200px"
   viewBox="0 0 200 200"
   version="1.1"
   id="svg3336"
   inkscape:version="0.91 r13725"
   sodipodi:docname="science-fox_violeta.svg">
  <metadata
     id="metadata3355">
    <rdf:RDF>
      <cc:Work
         rdf:about="">
        <dc:format>image/svg+xml</dc:format>
        <dc:type
           rdf:resource="http://purl.org/dc/dcmitype/StillImage" />
        <dc:title>science-fox</dc:title>
      </cc:Work>
    </rdf:RDF>
  </metadata>
  <sodipodi:namedview
     pagecolor="#ffffff"
     bordercolor="#666666"
     borderopacity="1"
     objecttolerance="10"
     gridtolerance="10"
     guidetolerance="10"
     inkscape:pageopacity="0"
     inkscape:pageshadow="2"
     inkscape:window-width="1600"
     inkscape:window-height="837"
     id="namedview3353"
     showgrid="false"
     inkscape:zoom="5.6568542"
     inkscape:cx="128.27419"
     inkscape:cy="73.223305"
     inkscape:window-x="1672"
     inkscape:window-y="468"
     inkscape:window-maximized="1"
     inkscape:current-layer="svg3336" />
  <!-- Generator: Sketch 3.4.2 (15857) - http://www.bohemiancoding.com/sketch -->
  <title
     id="title3338">science-fox</title>
  <desc
     id="desc3340">Created with Sketch.</desc>
  <defs
     id="defs3342" />
  <g
     id="Page-1"
     sketch:type="MSPage"
     stroke-width="1"
     stroke="none"
     fill-rule="evenodd"
     fill="none">
    <g
       id="science-fox"
       sketch:type="MSArtboardGroup">
      <g
         id="g3346"
         sketch:type="MSLayerGroup">
        <path
           d="M0,0.689387429 L0,127.599039 L52.4390115,173.310919 L173.576023,56.3717189 L126.140644,0.689387429 L0,0.689387429 Z"
           id="Fill-1"
           sketch:type="MSShapeGroup"
           fill="#006837" />
        <g
           id="Group-6"
           transform="translate(25.908046, 28.142857)"
           sketch:type="MSShapeGroup">
          <path
             d="M0.849896552,84.644596 C0.849896552,131.153482 38.5787701,168.85703 85.1175057,168.85703 C131.646103,168.85703 169.374977,131.153482 169.374977,84.644596 C169.374977,38.136836 131.646103,0.434413143 85.1175057,0.434413143 L0.849896552,0.434413143 L0.849896552,84.644596 Z"
             id="Fill-2"
             fill="#006837" />
          <path
             d="M8.09862989,84.6447086 C8.09862989,127.152806 42.5822391,161.613171 85.1176184,161.613171 C127.64286,161.613171 162.126469,127.152806 162.126469,84.6447086 C162.126469,42.1377371 127.64286,7.67849714 85.1176184,7.67849714 L8.09862989,7.67849714 L8.09862989,84.6447086 Z"
             id="Fill-4"
             fill="#FFFFFF" />
        </g>
        <g
           id="Group-296"
           transform="translate(65.333333, 54.034286)"
           sketch:type="MSShapeGroup" />
      </g>
    </g>
  </g>
  <g
     id="g3940"
     transform="matrix(0.01492062,0,0,-0.01562269,38.173734,194.35312)"
     style="fill:#002b11;stroke:none">
    <path
       id="path3942"
       d="m 4774,9286 c -3,-8 -4,-27 -2,-43 3,-26 7,-28 50,-31 l 48,-3 2,-172 3,-172 40,0 40,0 -4,177 -3,177 48,3 c 49,3 49,3 49,38 l 0,35 -133,3 c -108,2 -133,0 -138,-12 z"
       inkscape:connector-curvature="0"
       style="fill:#002b11" />
    <path
       id="path3944"
       d="m 5216,9218 c -3,-40 -7,-136 -8,-213 l -3,-140 37,-3 c 47,-4 45,-12 53,236 l 7,192 -40,0 -40,0 -6,-72 z"
       inkscape:connector-curvature="0"
       style="fill:#002b11" />
    <path
       id="path3946"
       d="m 4390,9064 c -39,-119 -69,-222 -66,-230 7,-17 60,-18 74,-1 5,6 13,26 16,43 7,30 10,32 68,38 99,10 104,9 118,-24 7,-17 22,-33 36,-36 27,-7 64,3 64,17 0,23 -213,409 -225,409 -9,0 -39,-76 -85,-216 z m 124,-11 c 15,-25 24,-48 22,-50 -2,-3 -23,-7 -45,-10 l -41,-6 15,49 c 8,27 15,52 15,57 0,16 9,5 34,-40 z"
       inkscape:connector-curvature="0"
       style="fill:#002b11" />
    <path
       id="path3948"
       d="m 5470,9263 c 1,-10 29,-112 64,-228 51,-170 66,-210 80,-210 21,0 238,379 229,401 -3,9 -20,14 -43,14 l -37,0 -63,-116 c -34,-63 -66,-112 -70,-107 -4,4 -21,60 -39,123 -18,63 -37,121 -43,128 -6,6 -26,12 -44,12 -26,0 -34,-4 -34,-17 z"
       inkscape:connector-curvature="0"
       style="fill:#002b11" />
    <path
       id="path3950"
       d="m 4012,9207 -103,-20 3,-36 3,-36 50,0 50,0 25,-165 26,-165 33,-3 c 19,-2 38,1 43,6 5,5 -1,72 -17,169 -14,88 -25,165 -25,171 0,6 18,13 40,17 47,8 54,16 45,55 -8,36 -22,37 -173,7 z"
       inkscape:connector-curvature="0"
       style="fill:#002b11" />
    <path
       id="path3952"
       d="m 6024,9188 c -14,-22 -83,-403 -74,-411 10,-11 222,-59 236,-53 16,6 27,57 15,69 -5,5 -42,17 -83,26 l -73,17 3,45 c 2,24 5,45 6,47 2,1 34,-5 71,-13 77,-18 88,-13 83,36 -3,33 -4,34 -70,48 -65,13 -67,15 -62,40 13,56 16,62 32,57 59,-16 133,-28 146,-23 10,4 16,19 16,40 l 0,34 -102,22 c -57,12 -110,25 -120,27 -9,3 -20,-1 -24,-8 z"
       inkscape:connector-curvature="0"
       style="fill:#002b11" />
    <path
       id="path3954"
       d="m 3675,9127 c -17,-13 -16,-22 25,-213 24,-109 46,-202 50,-207 9,-11 68,3 73,17 3,7 -8,68 -23,137 -15,68 -35,159 -44,202 -15,68 -20,77 -40,77 -12,0 -30,-6 -41,-13 z"
       inkscape:connector-curvature="0"
       style="fill:#002b11" />
    <path
       id="path3956"
       d="m 3345,9031 c -97,-33 -110,-41 -113,-62 -2,-13 3,-32 10,-42 12,-16 17,-17 54,-3 l 41,14 27,-96 c 64,-230 65,-232 90,-232 12,0 30,6 40,13 18,13 16,21 -28,175 -25,89 -46,163 -46,166 0,2 14,7 30,11 47,10 61,29 48,65 -6,18 -17,30 -26,29 -10,0 -66,-17 -127,-38 z"
       inkscape:connector-curvature="0"
       style="fill:#002b11" />
    <path
       id="path3958"
       d="m 6717,8993 c -16,-27 -125,-389 -119,-395 11,-11 210,-88 227,-88 15,0 25,22 25,55 0,20 -11,27 -75,50 -41,15 -75,33 -75,40 0,19 21,75 28,75 4,0 35,-10 69,-22 34,-12 65,-20 68,-16 3,3 8,21 11,40 l 6,35 -63,23 c -35,13 -65,24 -67,26 -3,2 19,84 22,84 1,0 37,-14 80,-30 86,-33 97,-31 99,20 2,32 1,33 -98,71 -101,38 -130,45 -138,32 z"
       inkscape:connector-curvature="0"
       style="fill:#002b11" />
    <path
       id="path3960"
       d="m 3008,8907 c -16,-6 -28,-18 -28,-27 0,-9 17,-61 39,-116 21,-54 38,-100 36,-102 -1,-1 -68,30 -148,69 -140,67 -167,74 -167,44 0,-18 137,-376 149,-388 10,-10 71,18 71,33 0,5 -18,55 -40,111 -22,57 -40,107 -40,112 0,5 66,-26 147,-68 138,-72 173,-83 173,-53 0,24 -145,391 -155,394 -6,1 -22,-3 -37,-9 z"
       inkscape:connector-curvature="0"
       style="fill:#002b11" />
    <path
       id="path3962"
       d="m 7139,8757 c -128,-68 -155,-261 -50,-366 43,-43 112,-67 168,-58 46,8 55,22 39,61 -11,28 -16,31 -52,28 -55,-4 -97,25 -119,82 -23,60 -10,111 40,155 56,49 137,35 170,-29 17,-33 23,-35 60,-18 28,13 31,27 11,66 -48,92 -172,129 -267,79 z"
       inkscape:connector-curvature="0"
       style="fill:#002b11" />
    <path
       id="path3964"
       d="m 2390,8583 c 1,-93 31,-448 38,-455 11,-11 51,6 64,26 4,6 5,27 2,47 -6,36 -6,36 66,77 l 71,42 29,-21 c 33,-25 73,-20 90,11 9,17 -9,35 -156,154 -161,131 -204,156 -204,119 z m 147,-182 32,-25 -37,-23 c -20,-12 -40,-23 -44,-23 -5,0 -8,25 -8,56 0,60 0,60 57,15 z"
       inkscape:connector-curvature="0"
       style="fill:#002b11" />
    <path
       id="path3966"
       d="m 7585,8511 c -81,-38 -125,-111 -125,-208 0,-67 24,-125 66,-165 137,-129 344,-28 344,167 0,163 -148,270 -285,206 z m 131,-87 c 34,-16 74,-81 74,-119 0,-10 -9,-38 -20,-61 -22,-44 -67,-74 -110,-74 -39,0 -87,38 -105,82 -20,52 -13,96 22,139 43,50 82,60 139,33 z"
       inkscape:connector-curvature="0"
       style="fill:#002b11" />
    <path
       id="path3968"
       d="m 2066,8379 c -14,-11 -26,-25 -26,-31 0,-6 29,-57 64,-112 100,-159 100,-158 60,-205 -31,-38 -71,-41 -101,-8 -11,12 -49,67 -83,122 -35,55 -65,102 -67,104 -6,9 -52,-19 -62,-36 -7,-15 4,-40 60,-128 38,-61 85,-125 104,-142 30,-29 42,-33 88,-33 63,0 108,25 145,80 20,30 23,44 20,100 -4,61 -9,73 -79,182 -41,65 -79,120 -86,122 -6,3 -23,-4 -37,-15 z"
       inkscape:connector-curvature="0"
       style="fill:#002b11" />
    <path
       id="path3970"
       d="m 7992,8079 c -62,-88 -112,-168 -112,-177 0,-16 158,-152 176,-152 15,1 44,48 39,62 -3,8 -28,32 -55,53 -28,22 -50,43 -50,48 0,5 41,66 90,137 50,71 90,133 90,140 0,14 -40,49 -56,50 -5,0 -61,-72 -122,-161 z"
       inkscape:connector-curvature="0"
       style="fill:#002b11" />
    <path
       id="path3972"
       d="m 1575,7964 c -80,-41 -124,-115 -125,-207 0,-66 15,-107 56,-156 71,-84 202,-93 281,-19 23,21 23,21 83,3 l 61,-18 26,25 c 14,15 23,33 20,41 -3,7 -31,21 -64,30 l -58,17 4,57 c 4,72 -12,124 -51,169 -61,69 -163,95 -233,58 z m 140,-94 c 17,-11 40,-37 50,-59 23,-53 14,-102 -30,-149 -29,-32 -39,-37 -79,-37 -36,0 -51,6 -76,30 -46,44 -57,93 -35,151 29,77 103,105 170,64 z"
       inkscape:connector-curvature="0"
       style="fill:#002b11" />
    <path
       id="path3974"
       d="m 8341,7879 c -86,-44 -134,-153 -112,-255 45,-199 289,-238 380,-59 55,105 23,240 -70,302 -57,37 -138,42 -198,12 z m 140,-84 c 40,-21 69,-71 69,-120 0,-69 -59,-135 -120,-135 -34,0 -79,29 -100,63 -39,63 -19,150 43,187 39,24 68,25 108,5 z"
       inkscape:connector-curvature="0"
       style="fill:#002b11" />
    <path
       id="path3976"
       d="m 2925,7450 c -12,-13 -16,-31 -13,-58 3,-37 -5,-52 -102,-193 -87,-128 -110,-155 -132,-157 -29,-3 -68,-44 -68,-71 0,-17 -176,-119 -194,-112 -41,15 -66,12 -90,-12 -41,-42 -28,-111 24,-129 7,-2 25,-62 40,-133 26,-115 27,-132 14,-146 -9,-11 -14,-33 -13,-60 2,-40 -5,-55 -72,-156 -62,-95 -78,-113 -100,-113 -48,0 -80,-63 -56,-110 7,-14 27,-30 46,-36 27,-9 41,-25 81,-100 34,-64 46,-94 39,-104 -17,-29 -9,-62 23,-92 29,-27 33,-39 53,-158 18,-106 19,-131 9,-142 -26,-25 -27,-71 -4,-101 23,-29 61,-35 102,-16 19,8 55,0 192,-43 l 168,-54 14,-39 c 18,-55 55,-85 105,-85 22,0 49,5 60,11 17,9 50,-13 239,-158 199,-153 219,-171 219,-198 l 0,-30 -173,-56 -173,-56 -27,24 c -21,17 -39,23 -78,23 -45,0 -54,-4 -83,-35 l -33,-35 -146,20 c -135,19 -147,23 -175,50 -36,37 -73,39 -106,5 -27,-26 -31,-51 -14,-87 8,-20 -1,-52 -62,-201 -54,-133 -76,-177 -89,-177 -27,0 -50,-33 -50,-72 0,-39 21,-64 59,-70 18,-2 38,-25 78,-88 44,-70 52,-91 49,-118 -6,-44 8,-80 37,-93 21,-10 28,-31 67,-209 40,-186 42,-199 26,-221 -9,-13 -16,-33 -16,-45 0,-32 37,-74 66,-74 20,0 41,-26 126,-152 94,-140 103,-157 104,-202 2,-64 30,-91 86,-83 35,5 51,-4 225,-122 158,-108 188,-132 195,-159 10,-37 42,-62 80,-62 26,0 60,23 69,47 2,5 101,21 219,35 212,26 215,26 236,7 27,-25 79,-24 104,1 22,22 26,70 9,98 -8,13 13,80 99,312 l 110,295 44,5 c 85,10 138,69 138,153 0,80 -45,140 -116,153 -19,3 -34,7 -34,9 0,1 -18,127 -40,280 -22,153 -40,286 -40,295 0,10 16,24 41,35 48,22 104,84 120,132 11,34 8,153 -4,183 -5,11 32,41 134,110 77,52 145,97 150,98 5,2 29,-14 53,-36 24,-22 64,-50 88,-63 23,-12 44,-22 45,-23 2,-1 -9,-94 -23,-207 -30,-238 -42,-525 -25,-614 15,-81 49,-145 91,-173 49,-33 146,-28 186,8 36,35 60,85 74,158 17,85 7,394 -18,592 -34,257 -36,234 25,264 29,14 70,43 90,63 l 38,38 145,-98 c 120,-81 144,-102 142,-120 -16,-122 -14,-147 13,-203 28,-56 85,-109 133,-121 18,-4 22,-11 18,-27 -2,-11 -21,-136 -41,-276 -45,-320 -39,-296 -76,-304 -97,-19 -148,-134 -101,-225 24,-47 63,-74 120,-81 l 47,-5 107,-290 c 66,-179 105,-298 102,-310 -17,-59 -16,-76 7,-101 28,-29 74,-32 103,-5 21,19 24,19 236,-7 209,-25 215,-26 238,-54 32,-38 82,-39 111,-2 12,15 21,35 21,45 0,13 58,57 193,147 175,117 195,128 229,124 30,-3 42,1 64,23 22,22 25,32 20,64 -5,34 2,48 99,194 89,133 109,157 130,157 55,0 83,69 49,118 -14,21 -12,37 27,220 24,108 47,199 53,201 5,2 21,15 34,28 20,20 23,31 18,63 -5,34 0,48 50,129 45,73 61,91 79,91 24,0 65,42 65,66 0,30 -25,66 -49,70 -23,5 -34,26 -95,176 -38,93 -69,175 -68,182 1,6 5,28 8,48 5,31 2,41 -20,62 -34,35 -71,33 -106,-4 -27,-28 -36,-31 -175,-50 l -146,-20 -33,35 c -30,31 -39,35 -84,35 -39,0 -57,-6 -78,-24 l -28,-23 -167,56 c -152,50 -168,57 -172,81 -3,13 -3,28 -1,32 3,4 101,82 220,173 183,141 217,164 233,155 63,-33 151,7 168,77 l 8,36 170,54 c 136,43 175,51 193,43 86,-38 152,31 105,110 -15,27 -15,36 5,155 19,116 23,128 53,156 29,27 31,33 26,73 -6,39 -1,53 41,130 32,59 52,86 65,86 26,0 67,45 67,73 0,34 -36,77 -66,77 -19,0 -38,21 -101,116 -69,104 -77,120 -74,158 1,28 -3,47 -12,54 -13,11 -11,30 14,145 15,72 33,133 40,136 27,9 49,43 49,75 0,54 -65,95 -108,67 -9,-5 -46,10 -108,43 -71,39 -94,56 -94,72 0,26 -37,61 -69,66 -18,2 -49,41 -130,158 -96,140 -106,159 -103,193 4,51 -19,77 -68,77 -44,0 -70,-24 -71,-66 0,-25 -23,-48 -186,-179 -102,-82 -190,-148 -197,-146 -6,3 -32,7 -57,9 -40,3 -51,0 -78,-25 -40,-35 -51,-94 -27,-141 l 16,-31 -187,-309 -186,-309 -52,1 c -57,0 -106,-23 -138,-65 -25,-34 -33,-109 -17,-149 11,-27 64,-82 88,-91 5,-3 2,-49 -8,-119 -10,-63 -25,-167 -35,-231 l -17,-117 -40,-6 c -129,-21 -222,-143 -205,-270 l 6,-42 -159,-71 c -88,-39 -160,-67 -160,-63 0,16 -101,119 -138,141 -20,12 -39,24 -41,25 -2,2 6,23 17,47 62,131 47,302 -31,364 l -24,19 115,195 c 98,168 119,197 145,205 42,12 55,53 33,103 -16,35 -16,46 3,195 20,151 22,159 51,186 35,33 39,66 9,104 -26,33 -79,36 -109,6 -26,-26 -26,-81 -2,-103 18,-17 18,-22 -3,-182 -12,-90 -23,-166 -26,-167 -2,-2 -13,-8 -24,-14 -28,-16 -42,-58 -29,-92 10,-25 0,-45 -101,-217 l -112,-190 -75,-3 -76,-3 -110,188 c -108,183 -110,189 -105,236 4,37 2,52 -12,67 -10,11 -24,20 -31,20 -15,0 -19,18 -40,197 -16,131 -16,142 -1,158 26,25 22,90 -5,109 -89,63 -171,-57 -86,-125 16,-13 23,-44 40,-177 21,-157 21,-163 3,-196 -16,-29 -17,-38 -5,-65 8,-21 22,-34 41,-39 25,-6 46,-36 143,-201 l 114,-194 -28,-23 c -64,-54 -83,-201 -40,-319 11,-33 23,-67 26,-75 3,-10 -8,-22 -31,-35 -37,-19 -135,-119 -135,-136 0,-17 -25,-9 -176,59 l -151,67 5,37 c 17,131 -63,243 -192,270 l -53,12 -32,215 c -17,119 -31,223 -31,233 0,9 15,25 33,36 66,38 88,148 45,212 -39,56 -70,73 -135,73 l -58,0 -187,309 c -181,300 -186,310 -172,336 8,15 14,44 14,66 0,30 -7,45 -35,73 -32,32 -39,35 -82,31 -27,-2 -53,-6 -59,-9 -6,-2 -92,63 -192,145 -138,112 -182,154 -182,171 0,12 -9,34 -21,49 -26,33 -86,37 -114,6 z m 281,-272 179,-147 -4,-48 -3,-48 -147,-95 c -143,-94 -147,-96 -173,-81 -24,14 -27,22 -32,96 -11,165 -17,477 -8,473 4,-1 89,-69 188,-150 z m 3848,-131 -7,-274 -34,-12 c -34,-13 -36,-12 -178,82 l -143,96 -4,45 -3,46 184,150 c 101,83 186,149 188,146 3,-2 1,-128 -3,-279 z M 2969,6887 c 1,-156 -3,-157 -119,-42 -126,125 -126,125 5,316 l 100,148 6,-152 c 4,-84 7,-205 8,-270 z m 4344,86 c -5,-35 -18,-53 -93,-128 -61,-61 -93,-86 -104,-82 -14,6 -16,32 -11,239 9,342 -2,327 115,156 93,-137 98,-147 93,-185 z m 290,-160 c 13,-6 -41,-22 -204,-57 -122,-26 -223,-46 -225,-43 -2,2 36,43 85,90 69,68 95,87 117,87 16,0 35,4 43,9 9,6 39,-6 90,-34 42,-23 84,-46 94,-52 z m -4792,-9 c 49,-48 87,-90 85,-92 -4,-3 -428,87 -434,93 -2,1 34,23 80,48 72,40 89,45 132,42 47,-3 53,-7 137,-91 z m 626,71 30,-15 6,-127 c 4,-71 7,-178 7,-240 l 0,-111 -32,-19 -33,-19 -135,114 c -182,155 -169,139 -161,195 l 6,47 140,94 c 77,52 140,95 141,95 0,1 14,-6 31,-14 z m 3370,-82 148,-98 0,-49 c 0,-42 -4,-52 -31,-75 -17,-14 -84,-71 -148,-125 l -117,-99 -35,16 c -40,19 -39,7 -27,316 l 6,181 26,14 c 14,8 27,14 28,15 1,1 68,-43 150,-96 z m -2925,-513 27,-45 -23,-29 -24,-28 -88,19 -88,19 -13,44 c -15,52 -54,95 -98,110 -31,10 -32,13 -39,78 -3,37 -6,146 -6,242 l 0,174 163,-269 c 90,-149 175,-290 189,-315 z m 2659,341 c -4,-142 -10,-236 -16,-238 -70,-23 -114,-70 -124,-129 l -6,-38 -85,-18 c -110,-22 -104,-23 -125,15 l -17,33 163,269 c 198,329 210,348 213,343 1,-1 0,-108 -3,-237 z m -3877,80 c 121,-26 222,-53 224,-59 5,-17 -365,-193 -392,-186 -19,4 -25,22 -50,138 -26,121 -28,157 -8,156 4,-1 106,-22 226,-49 z m 4983,33 c 3,-8 -7,-73 -22,-144 -25,-116 -30,-129 -51,-134 -17,-5 -74,19 -209,86 -102,51 -184,97 -182,102 3,8 400,101 445,105 7,1 15,-6 19,-15 z M 2928,6568 c 7,-9 -5,-55 -42,-155 -40,-112 -55,-143 -69,-143 -10,0 -31,-7 -47,-15 -29,-15 -31,-14 -130,51 -55,37 -100,72 -100,78 0,9 350,194 371,195 4,1 11,-5 17,-11 z m 4422,-83 c 105,-52 190,-98 190,-103 0,-4 -48,-38 -106,-75 -72,-46 -110,-65 -118,-58 -6,5 -27,13 -46,18 -34,9 -36,12 -86,151 -36,99 -48,144 -41,151 6,6 12,11 14,11 2,0 89,-43 193,-95 z m -4125,-55 153,-130 -10,-33 -10,-34 -182,-17 c -99,-9 -194,-19 -211,-22 -26,-3 -33,1 -52,31 l -22,34 51,141 c 43,120 54,140 72,140 11,0 28,5 36,10 8,5 16,10 18,10 2,0 72,-58 157,-130 z m 3827,112 c 30,-5 32,-9 98,-200 l 32,-91 -23,-30 c -19,-25 -30,-30 -54,-26 -16,2 -111,12 -211,21 l -180,17 -10,33 -11,33 151,130 c 98,84 156,128 166,124 8,-3 27,-8 42,-11 z M 2613,6255 c 98,-66 116,-90 75,-100 -70,-17 -383,-74 -386,-70 -2,2 28,53 68,114 69,106 79,115 130,120 8,0 59,-28 113,-64 z m 5018,47 c 21,-23 148,-222 142,-222 -9,0 -355,67 -390,75 -42,10 -23,35 75,100 85,57 101,64 132,59 19,-3 38,-9 41,-12 z M 3383,6145 c 9,-18 27,-41 40,-50 l 25,-16 -25,-98 c -24,-97 -26,-99 -56,-104 -18,-2 -46,-10 -63,-17 -31,-13 -32,-12 -200,115 -93,71 -170,129 -172,130 -1,1 0,9 3,17 5,11 51,20 198,35 106,11 201,21 213,22 14,1 25,-10 37,-34 z m 3572,9 c 181,-17 188,-18 183,-38 -2,-8 -80,-73 -174,-143 l -171,-129 -34,18 c -18,10 -45,18 -59,18 -23,0 -27,7 -51,99 l -26,99 34,26 c 18,15 36,38 39,52 6,24 10,25 53,20 25,-3 118,-13 206,-22 z m -3185,-12 84,-18 8,-38 c 12,-57 42,-92 96,-112 26,-10 48,-19 50,-20 2,-1 16,-91 32,-200 16,-110 32,-213 35,-230 4,-25 1,-33 -17,-41 -22,-10 -33,6 -226,303 l -204,313 18,31 c 21,35 14,34 124,12 z m 2656,-10 21,-27 -196,-302 c -108,-167 -202,-308 -208,-314 -6,-6 -20,-8 -30,-5 -19,6 -19,12 13,234 19,125 34,230 34,233 0,4 14,9 31,13 63,12 119,73 119,130 0,27 8,30 120,54 67,14 73,13 96,-16 z m -3684,-62 c 16,-16 36,-30 44,-30 11,0 14,-27 14,-150 0,-90 -4,-150 -10,-150 -5,0 -24,-13 -43,-29 l -33,-29 -84,19 c -148,34 -156,37 -168,64 -7,14 -24,28 -43,32 -26,7 -39,23 -81,98 -38,69 -47,94 -40,109 7,17 39,26 193,57 101,20 192,37 202,38 10,0 32,-12 49,-29 z m 4822,-7 c 245,-47 240,-41 170,-169 -40,-72 -54,-89 -79,-96 -16,-4 -37,-20 -46,-35 -15,-23 -32,-30 -135,-54 l -117,-28 -34,29 c -19,17 -39,30 -45,30 -17,0 -6,292 12,298 8,3 26,17 40,32 14,15 27,28 30,29 3,1 94,-15 204,-36 z M 3781,5760 c 109,-168 199,-310 199,-316 0,-6 -6,-17 -14,-23 -12,-10 -55,13 -220,115 l -206,127 0,56 c 0,62 -22,109 -63,136 l -25,16 26,100 25,100 39,-3 40,-3 199,-305 z m 2812,213 27,-98 -34,-30 c -46,-40 -56,-64 -56,-128 l 0,-55 -206,-127 c -113,-70 -206,-125 -208,-123 -1,1 -7,10 -14,19 -11,15 16,62 189,328 l 202,311 37,0 37,0 26,-97 z m -3520,-46 c 134,-102 173,-137 166,-148 -5,-8 -9,-23 -9,-34 0,-19 -15,-23 -147,-46 l -147,-26 -23,28 c -13,15 -33,31 -43,34 -19,6 -20,16 -20,154 0,144 1,148 23,159 12,6 22,11 23,11 1,1 80,-59 177,-132 z m 4147,-37 c 0,-145 0,-147 -24,-158 -13,-6 -32,-21 -42,-35 l -18,-23 -146,24 c -80,14 -146,25 -146,26 -1,1 -4,18 -8,38 l -7,37 172,130 c 155,116 175,128 196,118 23,-10 23,-13 23,-157 z M 2593,5653 c 77,-18 117,-32 117,-41 0,-45 61,-102 108,-102 16,0 28,-24 66,-132 46,-130 46,-132 28,-151 -19,-19 -22,-18 -192,34 -138,43 -174,58 -180,75 -5,12 -20,30 -34,40 -22,17 -28,34 -47,147 -21,128 -21,157 3,157 7,0 66,-12 131,-27 z m 5034,11 c 3,-9 -3,-72 -15,-140 -18,-109 -24,-128 -49,-152 -15,-15 -32,-35 -38,-44 -6,-10 -78,-38 -178,-69 -166,-51 -169,-52 -188,-33 -18,19 -18,21 28,151 l 46,131 38,6 c 42,7 89,54 89,89 0,20 12,25 108,48 129,32 151,34 159,13 z m -4374,-26 18,-31 -116,-174 c -102,-154 -118,-173 -143,-173 -26,0 -29,6 -73,133 l -47,133 24,27 c 13,16 24,36 24,47 0,15 13,20 73,30 39,7 101,18 137,25 36,7 70,14 75,14 6,0 18,-13 28,-31 z m 3723,7 c 76,-14 142,-25 145,-25 4,0 10,-12 14,-27 3,-16 15,-37 26,-48 18,-21 18,-23 -28,-152 -43,-119 -50,-132 -73,-135 -24,-4 -36,11 -144,172 l -117,177 18,31 c 10,18 18,32 19,32 0,0 63,-11 140,-25 z M 3720,5485 c 96,-59 180,-113 187,-119 9,-8 9,-23 -1,-61 l -13,-50 -64,-7 c -35,-4 -82,-10 -104,-13 -37,-5 -41,-3 -53,25 -18,39 -63,71 -112,77 -44,6 -41,1 -81,151 l -21,83 23,25 c 20,21 25,23 43,10 12,-7 100,-62 196,-121 z m 2869,-13 c -37,-138 -34,-132 -65,-132 -55,0 -96,-32 -139,-107 0,-1 -48,3 -105,10 l -105,12 -6,40 c -4,22 -9,46 -11,53 -2,8 80,65 202,141 l 205,128 26,-19 26,-20 -28,-106 z m -3175,44 c 8,-28 22,-81 31,-117 l 17,-65 -36,-36 c -20,-20 -39,-50 -42,-66 -6,-29 -8,-30 -78,-36 -39,-4 -99,-9 -133,-13 -59,-5 -63,-4 -74,19 -10,23 -1,40 105,199 l 116,175 40,-4 c 38,-4 40,-6 54,-56 z m 3455,-114 c 115,-173 118,-179 102,-200 -16,-22 -18,-22 -141,-12 -68,6 -127,13 -132,16 -4,3 -8,14 -8,26 0,11 -18,38 -40,60 l -40,40 31,119 32,118 36,4 c 20,2 37,4 38,5 2,1 56,-78 122,-176 z m -2938,-257 27,-53 -139,-158 c -109,-125 -143,-158 -161,-156 -12,1 -23,4 -25,6 -2,2 -14,58 -25,126 -22,121 -22,122 -2,133 35,20 73,68 80,101 l 6,33 81,10 c 136,17 129,18 158,-42 z m 2385,39 c 61,-6 62,-7 73,-45 12,-39 63,-99 85,-99 10,0 8,-28 -9,-126 -21,-121 -32,-148 -62,-141 -6,1 -74,74 -151,162 l -140,160 18,26 c 10,14 22,38 26,53 6,27 9,28 53,22 25,-3 74,-8 107,-12 z M 3449,5053 c 19,-13 44,-23 57,-23 25,0 30,-17 55,-173 12,-82 6,-108 -24,-91 -8,5 -107,81 -221,168 -123,96 -206,166 -206,176 0,15 18,19 133,26 l 132,9 20,-35 c 11,-19 36,-45 54,-57 z m 3511,57 c 0,-24 -427,-353 -448,-345 -16,6 -15,14 14,178 14,74 19,87 36,87 42,0 128,69 128,103 0,9 33,10 135,3 117,-8 135,-11 135,-26 z m -2450,-49 c 130,-58 154,-72 150,-88 -3,-10 -5,-65 -5,-123 0,-86 4,-112 21,-145 l 20,-41 -149,-101 -149,-102 -37,29 c -20,17 -60,36 -89,42 -34,9 -52,18 -52,28 0,8 -7,110 -16,227 -9,116 -14,218 -11,226 3,8 20,18 37,22 17,4 50,26 73,49 23,24 44,44 47,44 4,1 76,-29 160,-67 z m 1242,35 c 16,-20 50,-43 82,-57 55,-22 56,-23 51,-58 -3,-20 -9,-101 -15,-181 -18,-252 -19,-260 -43,-260 -28,0 -118,-42 -135,-63 -12,-14 -29,-6 -163,84 -82,54 -149,100 -149,102 0,1 9,26 21,56 22,58 29,156 16,231 l -7,45 153,67 c 83,37 154,68 157,68 3,0 17,-15 32,-34 z m -1644,-76 c 12,0 22,-1 22,-2 6,-39 37,-475 34,-479 -2,-4 -17,-9 -33,-12 -17,-4 -48,-22 -69,-41 l -39,-36 -143,88 c -141,88 -142,89 -145,128 -2,21 -5,46 -7,55 -2,9 56,84 137,176 l 140,160 40,-18 c 22,-10 50,-19 63,-19 z m 2106,-130 c 119,-135 135,-158 129,-180 -3,-14 -7,-38 -7,-55 -1,-27 -13,-37 -143,-117 l -143,-87 -25,25 c -14,14 -46,34 -70,45 -54,24 -52,12 -30,279 8,96 15,185 15,196 0,17 8,23 38,28 20,3 48,12 62,19 14,8 28,11 32,8 4,-3 68,-76 142,-161 z M 3538,4580 c 10,-17 5,-38 -37,-148 l -49,-127 -49,-6 c -26,-3 -55,-9 -64,-13 -10,-5 -39,15 -93,66 -74,69 -78,75 -72,105 7,31 11,33 169,87 89,30 167,55 172,55 6,1 16,-8 23,-19 z m 3199,-41 c 160,-53 161,-53 165,-85 3,-28 -4,-39 -75,-104 -72,-67 -80,-72 -103,-61 -14,6 -42,11 -63,11 l -38,0 -51,132 c -49,124 -51,133 -35,150 9,10 22,17 27,15 6,-2 84,-28 173,-58 z m -2887,-49 c 74,-45 136,-83 137,-84 1,-1 -3,-30 -9,-63 l -11,-62 -193,-37 -192,-37 -39,41 -38,40 50,128 51,129 37,6 c 21,3 43,11 49,17 6,6 14,10 17,8 3,-2 67,-41 141,-86 z m 2592,60 c 20,0 29,-16 74,-132 l 51,-133 -23,-18 c -13,-9 -26,-26 -29,-37 -4,-11 -14,-20 -23,-20 -8,0 -100,16 -203,36 l -187,36 -8,51 c -4,29 -8,56 -8,62 -1,5 62,48 139,96 134,82 141,86 167,73 15,-8 37,-14 50,-14 z m -3498,-91 c 5,-5 8,-10 5,-13 -14,-13 -520,-315 -517,-309 1,5 32,81 68,170 59,147 67,162 93,167 15,3 30,12 33,19 4,11 32,10 157,-6 84,-11 156,-23 161,-28 z m 4547,11 c 10,0 37,-54 81,-162 37,-90 65,-165 63,-167 -8,-7 -512,305 -508,315 2,6 72,20 156,30 146,19 153,19 173,2 11,-10 27,-18 35,-18 z m -4497,-89 c 3,-4 -14,-74 -37,-155 l -42,-147 -37,-10 c -20,-5 -46,-21 -58,-36 l -21,-26 -152,28 c -84,15 -162,31 -175,34 -18,5 26,35 235,163 142,86 263,157 270,157 6,1 14,-3 17,-8 z m 4360,-142 c 138,-84 255,-155 259,-159 5,-4 -68,-22 -162,-40 l -170,-33 -36,31 c -20,18 -44,32 -55,32 -26,0 -30,7 -76,165 -41,138 -43,155 -22,155 6,0 124,-68 262,-151 z m -4133,55 c 49,-47 63,-66 57,-78 -5,-8 -9,-33 -11,-55 l -2,-40 -128,-47 c -128,-47 -128,-47 -148,-28 -20,20 -19,21 22,166 l 42,145 36,10 c 42,11 43,10 132,-73 z m 3815,6 c 8,-30 27,-95 41,-143 l 26,-88 -20,-21 -21,-21 -124,46 c -120,44 -123,46 -129,79 -3,18 -9,45 -13,59 -7,23 1,34 69,96 l 77,70 39,-11 c 36,-9 40,-14 55,-66 z M 4012,4173 c 10,-15 23,-35 29,-44 9,-12 3,-29 -35,-86 l -47,-70 -49,5 c -37,3 -59,-1 -90,-17 l -41,-21 -105,71 c -104,69 -105,71 -98,102 3,18 8,34 10,36 1,2 90,20 196,41 208,40 195,41 230,-17 z m 2301,12 c 92,-18 170,-35 173,-38 3,-3 7,-20 7,-37 2,-30 -5,-37 -98,-101 l -100,-70 -40,21 c -30,16 -53,20 -92,17 l -52,-4 -46,69 c -25,37 -45,72 -45,76 0,5 9,17 19,26 11,10 27,33 35,51 13,27 20,32 43,27 16,-3 104,-19 196,-37 z M 4198,4060 c 12,0 22,-1 22,-2 0,-2 20,-137 43,-300 54,-370 59,-363 -117,-170 -122,135 -123,137 -110,164 21,40 18,117 -7,157 l -20,33 47,72 47,72 36,-12 c 20,-7 46,-13 59,-14 z m 1818,-49 45,-69 -20,-38 c -24,-45 -27,-101 -7,-148 l 14,-33 -122,-136 c -66,-75 -123,-136 -126,-136 -3,0 -11,3 -19,8 -12,7 -7,57 29,305 l 44,296 25,1 c 14,0 35,4 46,9 37,16 45,11 91,-59 z m -2643,-13 c 23,-6 43,-12 44,-12 1,-1 9,-44 17,-96 9,-52 19,-110 22,-127 3,-22 1,-33 -7,-33 -7,0 -22,-9 -33,-19 -21,-19 -22,-19 -206,96 -102,63 -186,116 -187,116 -1,1 1,13 4,27 4,22 20,31 131,71 l 126,46 24,-28 c 13,-16 42,-34 65,-41 z m 3675,-50 c 3,-22 -16,-36 -179,-137 l -182,-113 -38,19 c -29,14 -37,23 -34,38 2,11 12,68 21,126 l 16,105 42,12 c 22,6 54,24 69,40 l 28,29 127,-47 c 112,-42 127,-50 130,-72 z m -3303,-119 0,-64 -54,-34 -54,-35 -38,22 c -21,12 -49,22 -61,22 -23,0 -25,6 -44,128 l -19,128 30,20 30,20 105,-72 104,-72 1,-63 z m 2824,184 c 18,-11 29,-24 26,-33 -2,-8 -11,-66 -21,-127 -15,-101 -19,-113 -37,-113 -11,0 -39,-9 -62,-21 l -42,-21 -50,31 -51,32 -4,64 -3,65 100,69 c 55,39 103,70 107,71 3,0 20,-8 37,-17 z m -3960,-28 c 95,-19 176,-37 182,-40 16,-10 2,-22 -89,-74 -75,-43 -94,-49 -124,-45 -30,5 -40,15 -71,68 -20,33 -46,76 -58,94 -11,17 -19,32 -17,32 3,0 82,-16 177,-35 z m 5014,3 c -83,-140 -96,-156 -132,-162 -30,-5 -49,2 -123,46 -49,29 -88,58 -88,64 0,7 24,17 53,23 28,6 104,22 167,35 153,32 146,32 123,-6 z M 2823,3777 c -113,-369 -141,-451 -147,-427 -4,14 -21,95 -40,180 -30,135 -32,157 -20,175 8,11 14,29 14,40 1,25 188,137 207,123 8,-7 5,-30 -14,-91 z m 354,-17 178,-111 1,-52 0,-52 -100,-47 c -95,-43 -102,-45 -125,-31 -13,9 -36,19 -49,22 -24,7 -29,20 -72,189 -43,169 -44,188 -18,191 3,1 86,-49 185,-109 z m 3916,104 c 12,-4 6,-37 -32,-190 -41,-167 -48,-184 -67,-184 -12,0 -33,-9 -47,-20 l -25,-20 -100,46 -100,46 -5,51 c -3,29 -4,53 -3,53 4,4 360,224 362,224 1,0 9,-2 17,-6 z m 255,-46 c 68,-39 92,-58 92,-73 0,-11 6,-30 14,-41 13,-18 10,-40 -22,-192 -20,-95 -39,-172 -42,-172 -8,0 -168,514 -163,523 8,15 32,6 121,-45 z M 2959,3651 c 42,-162 42,-163 23,-185 -27,-29 -42,-61 -42,-88 0,-20 -15,-29 -102,-66 -55,-23 -103,-40 -106,-37 -4,4 20,84 135,454 22,70 39,108 43,100 4,-8 26,-88 49,-178 z m 4305,-114 c 46,-147 81,-267 77,-267 -3,0 -52,19 -108,42 -101,43 -101,43 -106,82 -3,22 -16,49 -31,65 l -25,26 35,140 c 58,231 55,223 66,200 5,-11 46,-140 92,-288 z m -3408,133 c 12,0 14,-50 14,-275 0,-151 -2,-275 -4,-275 -7,0 -236,338 -236,348 0,4 9,26 21,47 15,30 19,52 15,85 l -5,45 57,36 57,35 34,-23 c 19,-13 40,-23 47,-23 z m 2550,-81 c -1,-44 4,-64 21,-87 l 21,-29 -116,-176 c -64,-97 -120,-177 -124,-177 -5,0 -8,123 -8,273 l 0,273 34,12 c 19,7 39,19 46,27 10,12 21,8 69,-22 l 58,-36 -1,-58 z m -2303,-39 c 126,-139 126,-140 111,-167 -9,-17 -14,-50 -12,-81 l 2,-53 -111,-74 c -106,-71 -113,-73 -142,-62 l -31,11 0,271 0,271 28,11 c 15,6 27,11 28,12 1,1 58,-62 127,-139 z m 2047,-155 0,-271 -31,-11 c -29,-11 -36,-9 -141,62 l -110,73 -3,64 c -1,34 -4,73 -6,86 -3,17 24,54 115,156 116,131 119,133 147,122 l 29,-10 0,-271 z m -2745,75 c 10,-11 25,-22 35,-25 15,-5 14,-21 -18,-193 -32,-178 -42,-205 -69,-199 -6,1 -54,58 -107,126 -77,100 -93,127 -86,142 6,10 10,31 10,47 0,27 7,32 98,74 53,26 102,47 108,47 6,1 19,-8 29,-19 z m 3394,-27 c 94,-43 101,-48 101,-75 0,-16 5,-38 10,-48 8,-16 -6,-40 -87,-144 -53,-70 -101,-126 -107,-126 -27,1 -35,26 -66,198 l -33,183 34,29 c 19,16 37,29 41,30 3,0 52,-21 107,-47 z m -3107,-177 117,-173 -16,-35 -16,-35 -138,-20 c -77,-10 -139,-15 -139,-11 0,5 -13,21 -29,36 l -29,27 29,155 c 15,85 31,169 34,187 4,25 11,33 33,36 15,2 29,5 32,6 3,0 58,-77 122,-173 z m 2867,158 c 2,-2 18,-85 37,-185 l 33,-183 -32,-35 -32,-36 -135,19 -136,19 -14,35 -15,36 115,172 c 112,168 116,172 145,167 17,-3 32,-7 34,-9 z m -3570,-143 24,-18 -27,-189 c -15,-104 -29,-195 -32,-203 -3,-9 -47,48 -109,142 -88,131 -103,160 -96,179 6,16 35,35 102,64 52,23 99,43 104,43 6,0 21,-8 34,-18 z m 4228,-23 c 139,-59 139,-53 10,-245 -77,-115 -104,-148 -109,-135 -4,9 -19,99 -33,200 l -26,183 23,19 c 13,11 25,20 28,20 3,0 51,-19 107,-42 z M 3224,3113 c 67,-87 76,-104 67,-121 -6,-12 -11,-31 -11,-44 0,-20 -15,-29 -126,-71 -81,-32 -129,-46 -136,-39 -6,6 0,75 17,193 32,224 33,227 53,231 19,4 24,-2 136,-149 z m 3810,-67 c 17,-113 27,-209 23,-213 -6,-6 -121,34 -224,78 -36,15 -43,23 -43,46 0,15 -4,34 -9,42 -10,15 9,42 137,204 78,99 81,95 116,-157 z m -2774,139 c 10,-12 -6,-64 -90,-293 -56,-152 -105,-281 -108,-286 -2,-5 -26,60 -53,144 l -48,154 25,29 c 17,21 24,40 24,73 l 0,44 112,75 c 62,41 116,75 119,75 4,0 12,-7 19,-15 z m 1686,-57 c 112,-72 114,-74 114,-111 0,-41 22,-93 41,-99 9,-3 -3,-53 -36,-161 -27,-87 -52,-154 -55,-150 -4,5 -53,133 -109,286 -80,219 -99,282 -90,293 6,8 14,14 17,14 2,0 56,-33 118,-72 z M 3796,2953 c 9,-15 -14,-52 -140,-225 -83,-113 -154,-209 -157,-212 -3,-4 -18,65 -32,151 l -26,157 30,30 c 16,16 32,39 35,52 3,13 9,24 13,24 6,1 251,37 261,39 3,1 10,-7 16,-16 z m 2654,-8 c 98,-15 119,-24 120,-52 0,-6 14,-23 31,-37 l 31,-26 -27,-157 c -14,-87 -27,-158 -28,-160 -2,-1 -71,92 -155,208 -118,161 -152,214 -147,229 5,17 12,20 38,15 18,-3 79,-12 137,-20 z m -2554,-53 c 6,-4 33,-74 58,-157 26,-82 49,-155 50,-161 2,-5 -3,-20 -13,-31 -14,-19 -41,-25 -230,-47 -118,-15 -215,-25 -216,-24 -2,2 67,99 152,216 148,201 170,224 199,204 z m 2478,-204 c 85,-117 154,-214 152,-215 -1,-1 -99,9 -217,23 -185,22 -216,28 -230,46 -15,19 -12,31 35,184 49,157 56,169 93,173 6,0 81,-94 167,-211 z m -3064,167 c 7,-8 26,-19 44,-23 l 31,-8 26,-160 c 15,-87 25,-161 24,-162 -2,-2 -92,56 -200,129 -108,73 -192,136 -188,140 8,7 231,97 244,98 4,1 12,-6 19,-14 z m 3587,-31 c 65,-25 122,-49 127,-54 6,-6 -371,-270 -387,-270 -2,0 8,71 22,158 l 27,157 36,17 c 20,10 39,22 43,28 8,13 -3,16 132,-36 z"
       inkscape:connector-curvature="0"
       style="fill:#002b11" />
    <path
       id="path3978"
       d="m 8755,7428 c -49,-18 -83,-47 -112,-96 -24,-39 -28,-58 -28,-117 1,-83 23,-132 84,-188 63,-57 81,-57 145,-1 30,26 57,53 60,59 6,16 -62,115 -79,115 -16,0 -45,-33 -45,-51 0,-8 6,-21 12,-27 10,-10 10,-15 -2,-22 -21,-14 -23,-13 -54,19 -75,79 -20,221 86,221 65,0 105,-38 117,-110 5,-28 12,-36 39,-44 22,-6 36,-6 43,1 17,17 0,95 -32,151 -46,81 -148,120 -234,90 z"
       inkscape:connector-curvature="0"
       style="fill:#002b11" />
    <path
       id="path3980"
       d="m 1021,7344 c -12,-15 -21,-32 -21,-38 1,-6 41,-42 90,-81 49,-38 88,-70 87,-71 -2,-3 -305,-44 -319,-44 -4,0 -8,-10 -8,-22 1,-17 39,-53 149,-140 82,-65 155,-118 164,-118 14,0 47,40 47,58 0,5 -43,43 -96,85 -53,42 -92,77 -85,77 21,0 285,30 309,35 47,11 23,41 -128,161 -82,65 -153,120 -159,122 -5,2 -18,-9 -30,-24 z"
       inkscape:connector-curvature="0"
       style="fill:#002b11" />
    <path
       id="path3982"
       d="m 9100,6949 -45,-110 -70,-46 c -91,-59 -98,-68 -79,-104 8,-16 21,-29 29,-29 8,0 49,22 91,50 65,42 82,49 113,45 20,-2 70,-7 112,-10 88,-6 99,3 69,52 -16,27 -24,30 -91,37 -40,3 -75,9 -77,11 -3,3 7,33 21,67 30,70 32,86 15,123 -22,49 -41,31 -88,-86 z"
       inkscape:connector-curvature="0"
       style="fill:#002b11" />
    <path
       id="path3984"
       d="m 716,6845 c -15,-16 -32,-63 -25,-69 42,-31 323,-196 334,-196 16,0 49,56 40,69 -3,5 -69,48 -147,96 -79,48 -152,94 -164,102 -19,12 -24,12 -38,-2 z"
       inkscape:connector-curvature="0"
       style="fill:#002b11" />
    <path
       id="path3986"
       d="m 569,6551 c -10,-35 -8,-45 30,-131 23,-51 39,-95 37,-97 -2,-2 -27,7 -55,21 -28,14 -57,26 -65,26 -19,0 -36,-30 -36,-62 0,-20 22,-33 168,-101 92,-42 173,-77 179,-77 16,0 44,55 38,72 -3,7 -38,28 -78,46 l -72,34 105,32 c 97,30 106,35 122,67 36,71 18,75 -131,24 l -102,-34 -28,62 c -15,34 -36,83 -47,109 -24,60 -48,64 -65,9 z"
       inkscape:connector-curvature="0"
       style="fill:#002b11" />
    <path
       id="path3988"
       d="m 9460,6276 c -30,-13 -110,-45 -177,-71 -89,-34 -123,-52 -123,-64 0,-9 15,-62 33,-116 36,-106 51,-121 91,-92 18,14 18,15 -3,84 -11,39 -21,73 -21,76 0,3 65,31 145,62 140,54 145,58 145,85 0,22 -23,64 -33,59 -1,0 -27,-11 -57,-23 z"
       inkscape:connector-curvature="0"
       style="fill:#002b11" />
    <path
       id="path3990"
       d="m 444,6050 c -41,-16 -71,-66 -93,-156 -12,-48 -18,-90 -14,-94 10,-9 347,-110 367,-110 9,0 18,11 22,24 12,47 2,60 -63,79 l -61,18 9,32 c 15,54 11,119 -11,155 -31,50 -102,74 -156,52 z m 81,-100 c 14,-15 16,-29 11,-65 -8,-49 -10,-50 -68,-33 -37,11 -38,13 -32,42 14,71 53,95 89,56 z"
       inkscape:connector-curvature="0"
       style="fill:#002b11" />
    <path
       id="path3992"
       d="m 9274,5786 c -3,-8 -1,-29 3,-47 8,-28 16,-35 45,-42 35,-8 36,-9 52,-92 l 17,-84 -32,-29 c -29,-25 -31,-32 -25,-65 4,-20 13,-37 20,-37 17,0 356,268 356,281 0,15 -32,25 -238,78 -149,39 -194,47 -198,37 z m 230,-132 c 20,-3 36,-9 36,-13 0,-9 -67,-61 -79,-61 -6,0 -11,6 -11,14 0,7 -3,28 -7,46 -5,28 -4,32 10,27 8,-3 32,-9 51,-13 z"
       inkscape:connector-curvature="0"
       style="fill:#002b11" />
    <path
       id="path3994"
       d="m 285,5538 c -2,-7 -6,-26 -7,-43 l -3,-30 190,-32 c 176,-30 191,-32 203,-16 14,20 16,59 2,68 -10,6 -341,65 -366,65 -8,0 -17,-6 -19,-12 z"
       inkscape:connector-curvature="0"
       style="fill:#002b11" />
    <path
       id="path3996"
       d="m 253,5248 c -4,-7 -10,-73 -11,-145 l -4,-133 35,0 c 34,0 36,2 41,43 3,23 7,57 8,74 l 3,33 144,-96 c 79,-52 149,-93 155,-91 11,4 30,260 21,285 -3,8 -17,12 -37,10 -32,-3 -33,-4 -36,-58 -5,-111 4,-110 -141,-16 -165,108 -168,109 -178,94 z"
       inkscape:connector-curvature="0"
       style="fill:#002b11" />
    <path
       id="path3998"
       d="m 9555,5250 c -60,-4 -129,-8 -152,-9 l -43,-1 0,-87 c 0,-153 31,-208 117,-208 39,0 49,5 73,33 20,25 29,29 33,19 3,-8 21,-20 40,-26 28,-10 42,-9 70,3 55,23 68,58 65,179 l -3,102 -45,1 c -25,1 -94,-2 -155,-6 z m 131,-106 c 10,-38 -7,-78 -34,-82 -34,-5 -52,15 -52,59 0,39 0,39 67,48 7,0 16,-11 19,-25 z m -158,-18 c 6,-46 -6,-75 -33,-82 -37,-9 -55,11 -55,61 0,47 8,55 55,52 25,-2 31,-7 33,-31 z"
       inkscape:connector-curvature="0"
       style="fill:#002b11" />
    <path
       id="path4000"
       d="m 8627,2709 c -32,-40 -57,-78 -57,-85 0,-14 205,-217 224,-222 7,-1 35,25 62,59 81,104 78,98 58,120 -17,19 -44,26 -44,12 0,-5 -17,-27 -38,-50 l -37,-42 -24,20 -24,20 32,40 c 37,45 39,82 5,87 -15,2 -31,-9 -54,-38 -31,-39 -33,-40 -51,-24 -26,23 -24,29 16,78 37,46 42,65 23,84 -21,21 -34,13 -91,-59 z"
       inkscape:connector-curvature="0"
       style="fill:#002b11" />
    <path
       id="path4002"
       d="m 1220,2669 c -63,-44 -122,-84 -130,-89 -11,-7 -12,-13 -2,-34 15,-34 35,-33 91,7 25,19 51,37 58,41 6,3 -4,-33 -23,-80 -24,-58 -32,-90 -25,-97 7,-7 38,0 95,20 l 84,29 -42,-55 c -23,-31 -46,-61 -50,-68 -9,-16 15,-53 35,-53 16,0 199,247 199,269 0,18 -30,13 -125,-19 -49,-16 -92,-30 -96,-30 -4,0 11,45 32,100 41,105 47,140 27,140 -7,-1 -65,-37 -128,-81 z"
       inkscape:connector-curvature="0"
       style="fill:#002b11" />
    <path
       id="path4004"
       d="m 8377,2422 c -10,-10 -17,-24 -17,-30 0,-11 194,-235 208,-240 4,-1 36,27 72,63 59,60 63,66 52,90 -16,34 -29,32 -77,-15 l -41,-40 -84,95 c -46,52 -86,95 -90,95 -4,0 -14,-8 -23,-18 z"
       inkscape:connector-curvature="0"
       style="fill:#002b11" />
    <path
       id="path4006"
       d="m 1563,2265 c -84,-40 -153,-78 -153,-83 0,-5 9,-17 21,-27 16,-16 25,-17 49,-8 26,10 31,7 73,-36 39,-41 44,-50 40,-82 -5,-36 14,-65 38,-57 13,4 112,345 104,359 -9,13 -7,14 -172,-66 z m 72,-72 c -10,-41 -19,-46 -45,-25 l -24,19 30,16 c 41,23 47,21 39,-10 z"
       inkscape:connector-curvature="0"
       style="fill:#002b11" />
    <path
       id="path4008"
       d="m 8154,2210 c -26,-21 -51,-46 -56,-53 -9,-17 169,-266 191,-267 16,0 100,74 118,104 7,12 12,38 13,59 0,45 -35,87 -75,87 -22,0 -25,4 -25,35 0,48 -29,75 -79,75 -31,0 -49,-8 -87,-40 z m 104,-61 c 2,-15 -5,-32 -16,-43 -19,-16 -21,-16 -41,10 l -21,26 23,19 c 29,25 51,20 55,-12 z m 86,-92 c 12,-19 1,-44 -28,-61 -14,-9 -21,-6 -38,14 l -20,24 27,24 c 30,25 43,25 59,-1 z"
       inkscape:connector-curvature="0"
       style="fill:#002b11" />
    <path
       id="path4010"
       d="m 1825,2009 c -72,-105 -87,-134 -79,-147 22,-34 50,-26 86,25 l 33,48 7,-88 c 7,-91 25,-131 56,-125 12,2 14,24 13,109 l -2,105 80,18 c 44,9 83,22 87,27 3,6 -3,20 -14,31 -19,19 -25,20 -79,9 -32,-6 -69,-14 -82,-18 -24,-6 -24,-6 7,40 18,25 32,53 32,61 0,14 -28,36 -47,36 -5,0 -49,-59 -98,-131 z"
       inkscape:connector-curvature="0"
       style="fill:#002b11" />
    <path
       id="path4012"
       d="m 7870,1977 c 0,-15 47,-311 55,-344 7,-28 19,-29 45,-3 14,14 18,28 14,49 -5,25 -1,33 41,65 53,40 57,41 84,24 23,-14 71,3 71,25 0,14 -277,197 -298,197 -7,0 -12,-6 -12,-13 z m 124,-173 c -15,-13 -29,-22 -30,-21 -1,1 -4,21 -8,44 l -6,42 36,-21 37,-22 -29,-22 z"
       inkscape:connector-curvature="0"
       style="fill:#002b11" />
    <path
       id="path4014"
       d="m 2130,1783 c -41,-70 -77,-133 -79,-142 -3,-15 24,-41 45,-41 6,0 43,53 81,118 99,165 96,158 77,176 -32,32 -48,18 -124,-111 z"
       inkscape:connector-curvature="0"
       style="fill:#002b11" />
    <path
       id="path4016"
       d="m 7612,1798 c -83,-54 -93,-69 -68,-103 13,-18 14,-18 43,3 l 29,21 63,-115 c 34,-63 67,-114 72,-114 19,0 49,21 49,33 0,7 -27,61 -60,121 l -60,110 26,21 c 22,17 26,27 20,48 -3,15 -12,27 -20,27 -7,0 -49,-24 -94,-52 z"
       inkscape:connector-curvature="0"
       style="fill:#002b11" />
    <path
       id="path4018"
       d="m 2313,1645 c -65,-130 -71,-146 -57,-160 31,-31 49,-18 89,65 23,47 42,75 46,68 3,-7 16,-62 29,-123 27,-130 36,-154 55,-134 7,8 43,74 81,147 54,106 66,137 58,150 -25,39 -48,25 -89,-52 -23,-42 -43,-70 -46,-63 -4,7 -19,65 -33,130 -22,92 -31,117 -44,117 -12,0 -39,-44 -89,-145 z"
       inkscape:connector-curvature="0"
       style="fill:#002b11" />
    <path
       id="path4020"
       d="m 7335,1636 c -63,-28 -95,-85 -95,-167 0,-101 66,-171 160,-171 58,0 113,29 135,72 21,41 19,59 -8,65 -18,5 -32,-2 -59,-29 -51,-51 -107,-45 -141,14 -42,70 -6,149 74,159 41,6 44,8 44,36 0,28 -3,30 -40,32 -22,2 -53,-3 -70,-11 z"
       inkscape:connector-curvature="0"
       style="fill:#002b11" />
    <path
       id="path4022"
       d="m 2744,1522 c -70,-44 -102,-142 -75,-225 22,-64 103,-117 182,-117 21,0 29,8 47,53 31,76 31,78 -13,103 -52,30 -61,30 -70,-3 -5,-20 -2,-31 10,-39 20,-15 12,-34 -14,-34 -25,0 -69,43 -77,74 -14,56 27,121 83,132 28,6 38,1 69,-30 28,-28 41,-35 60,-30 28,7 30,25 8,62 -26,45 -63,66 -124,70 -42,2 -62,-2 -86,-16 z"
       inkscape:connector-curvature="0"
       style="fill:#002b11" />
    <path
       id="path4024"
       d="m 7025,1476 c -18,-13 -17,-18 40,-167 33,-84 65,-154 71,-156 6,-2 21,4 33,14 l 22,18 -59,150 c -34,88 -64,151 -73,153 -8,1 -23,-4 -34,-12 z"
       inkscape:connector-curvature="0"
       style="fill:#002b11" />
    <path
       id="path4026"
       d="m 6715,1349 c -33,-11 -65,-26 -72,-32 -9,-9 -2,-44 34,-157 25,-80 50,-150 57,-157 8,-9 27,-5 80,15 95,37 129,79 133,165 5,81 -22,132 -87,165 -54,27 -68,27 -145,1 z m 133,-83 c 32,-31 40,-97 18,-132 -15,-22 -83,-62 -91,-52 -4,6 -55,176 -55,186 0,15 51,32 80,26 14,-3 35,-16 48,-28 z"
       inkscape:connector-curvature="0"
       style="fill:#002b11" />
    <path
       id="path4028"
       d="m 3295,1340 c -3,-5 -26,-79 -50,-163 -41,-139 -43,-153 -28,-164 37,-28 49,-16 73,70 13,45 26,85 30,90 3,4 29,-47 56,-114 47,-116 68,-146 83,-120 17,27 92,314 84,322 -5,5 -19,10 -33,11 -22,3 -26,-3 -49,-84 -13,-49 -27,-86 -29,-83 -3,3 -29,58 -57,122 -51,114 -66,136 -80,113 z"
       inkscape:connector-curvature="0"
       style="fill:#002b11" />
    <path
       id="path4030"
       d="m 6396,1244 c -43,-13 -81,-26 -84,-28 -9,-9 73,-319 86,-324 14,-5 160,35 178,49 16,13 5,59 -15,59 -9,0 -38,-7 -65,-15 -27,-8 -51,-13 -53,-11 -2,2 -8,17 -12,34 -9,30 -8,30 42,44 54,15 68,36 48,68 -8,12 -17,12 -61,1 -28,-7 -53,-12 -54,-10 -2,2 -6,16 -10,31 -6,26 -4,28 51,44 71,20 76,24 67,58 -7,31 -15,31 -118,0 z"
       inkscape:connector-curvature="0"
       style="fill:#002b11" />
    <path
       id="path4032"
       d="m 3695,1064 c -54,-75 -100,-145 -102,-155 -4,-13 2,-20 23,-25 22,-6 31,-2 48,19 21,26 22,26 75,12 62,-16 68,-21 73,-54 3,-24 51,-51 66,-37 9,10 -62,369 -74,373 -6,2 -55,-58 -109,-133 z m 89,-52 c 6,-42 6,-42 -21,-36 -38,9 -38,8 -13,49 12,20 23,35 25,33 1,-2 5,-22 9,-46 z"
       inkscape:connector-curvature="0"
       style="fill:#002b11" />
    <path
       id="path4034"
       d="m 6005,1146 c -30,-6 -51,-17 -52,-26 -2,-8 10,-82 25,-165 l 29,-150 29,0 c 27,0 29,3 29,35 0,19 -4,50 -7,68 -7,29 -5,32 15,32 15,0 33,-17 61,-56 34,-49 41,-55 65,-49 44,11 45,21 3,76 l -40,53 19,24 c 13,17 19,41 19,72 0,91 -60,118 -195,86 z m 126,-77 c 14,-27 -10,-54 -58,-64 -30,-6 -32,-5 -39,30 -8,43 4,55 53,55 23,0 36,-6 44,-21 z"
       inkscape:connector-curvature="0"
       style="fill:#002b11" />
    <path
       id="path4036"
       d="m 4002,1108 c 2,-28 8,-34 33,-38 35,-6 34,-1 9,-169 -17,-110 -15,-120 29,-121 23,0 23,2 45,145 l 18,120 37,-3 c 32,-2 37,0 43,23 4,15 3,30 -2,35 -9,9 -162,40 -196,40 -16,0 -19,-6 -16,-32 z"
       inkscape:connector-curvature="0"
       style="fill:#002b11" />
    <path
       id="path4038"
       d="m 5673,1091 c -24,-4 -45,-10 -49,-14 -6,-5 20,-262 32,-315 4,-18 10,-23 32,-20 26,3 27,5 26,66 -1,54 1,62 18,62 37,0 87,29 102,59 27,51 21,98 -18,137 -36,36 -54,39 -143,25 z m 95,-73 c 18,-18 14,-56 -7,-68 -35,-18 -61,-13 -61,14 0,13 -3,31 -6,39 -9,24 53,36 74,15 z"
       inkscape:connector-curvature="0"
       style="fill:#002b11" />
    <path
       id="path4040"
       d="m 4336,1081 c -4,-6 -12,-64 -18,-129 -10,-106 -9,-122 7,-156 22,-45 59,-66 119,-66 33,0 52,6 75,26 37,31 48,68 57,200 l 6,101 -27,7 c -15,4 -30,4 -33,1 -3,-3 -11,-58 -18,-122 -9,-92 -15,-119 -30,-130 -28,-21 -62,-16 -80,12 -14,22 -15,38 -5,137 6,61 10,113 8,114 -10,10 -56,14 -61,5 z"
       inkscape:connector-curvature="0"
       style="fill:#002b11" />
    <path
       id="path4042"
       d="m 4727,1043 c -4,-3 -7,-79 -7,-169 0,-138 2,-163 16,-168 36,-14 42,-6 49,59 5,53 10,65 24,65 13,0 26,-20 46,-65 26,-62 29,-65 61,-65 42,0 43,13 9,81 l -26,50 31,30 c 23,24 30,39 30,70 0,54 -23,95 -61,108 -35,12 -161,15 -172,4 z m 151,-75 c 18,-18 14,-56 -7,-68 -11,-5 -33,-7 -50,-4 -28,6 -31,10 -31,45 0,38 1,39 38,39 21,0 43,-5 50,-12 z"
       inkscape:connector-curvature="0"
       style="fill:#002b11" />
    <path
       id="path4044"
       d="m 5098,1043 c -2,-5 -1,-82 2,-173 l 5,-165 50,-3 c 28,-2 74,-1 103,3 49,6 52,8 52,36 l 0,29 -70,0 -70,0 0,34 c 0,34 0,35 55,41 52,7 55,9 55,36 0,28 -1,29 -54,29 -47,0 -54,3 -60,23 -11,43 -8,46 62,49 l 67,3 3,33 3,32 -100,0 c -55,0 -101,-3 -103,-7 z"
       inkscape:connector-curvature="0"
       style="fill:#002b11" />
  </g>
</svg>
